<svg width="170" height="170" viewBox="0 0 170 170" fill="none" xmlns="http://www.w3.org/2000/svg">
<g clip-path="url(#clip0)">
<path d="M92.3015 103.893C85.2645 103.893 79.5391 109.618 79.5391 116.656C79.5391 123.693 85.2642 129.418 92.3015 129.418C99.3389 129.418 105.064 123.693 105.064 116.656C105.064 109.618 99.3389 103.893 92.3015 103.893ZM92.3015 124.437C88.0105 124.437 84.5197 120.946 84.5197 116.656C84.5197 112.365 88.0105 108.874 92.3015 108.874C96.5926 108.874 100.083 112.365 100.083 116.656C100.083 120.946 96.5926 124.437 92.3015 124.437Z" fill="#FFCC18"/>
<path d="M169.057 43.7129C167.14 40.3904 162.735 39.2093 159.412 41.1285L156.531 42.7918C153.749 44.3982 156.24 48.7115 159.022 47.105L161.902 45.4418C164.228 44.1 166.305 47.7037 163.982 49.0442L137.571 64.2927C135.25 65.6355 133.167 62.0331 135.491 60.6903L149.749 52.4589C152.531 50.8525 150.04 46.5395 147.258 48.1456L133.001 56.377C125.138 60.9164 132.161 73.1682 140.061 68.6059L149.503 63.1547V142.133C149.503 145.345 154.484 145.345 154.484 142.133V60.2792L166.473 53.3574C169.844 51.411 171.003 47.0844 169.057 43.7129Z" fill="#FFCC18"/>
<path d="M38.0617 39.4949H52.4117C61.5001 39.4949 61.518 25.374 52.4117 25.374H21.9147C12.8266 25.374 12.8087 39.4949 21.9147 39.4949H30.261L0.895598 63.8554C-1.58644 65.914 1.62178 69.7246 4.07526 67.6888L8.36794 64.128V142.184C8.36794 145.396 13.3486 145.396 13.3486 142.184V59.996L38.0617 39.4949ZM19.8351 32.4343C19.8351 31.2874 20.7682 30.3544 21.9147 30.3544H52.412C55.0943 30.3544 55.0943 34.5139 52.412 34.5139H21.9147C20.7682 34.5142 19.8351 33.5815 19.8351 32.4343V32.4343Z" fill="#FFCC18"/>
<path d="M145.058 78.2195C145.058 76.8439 143.944 75.7292 142.568 75.7292H108.821C106.236 75.7292 106.331 78.3603 106.331 80.1829C100.324 74.7185 92.5185 71.2004 83.9202 70.6267V61.5041H86.6769V64.5234C86.6769 65.899 87.7915 67.0137 89.1672 67.0137H115.98C117.355 67.0137 118.47 65.899 118.47 64.5234V46.3539C118.47 44.9782 117.355 43.8635 115.98 43.8635H89.1672C87.7915 43.8635 86.6769 44.9782 86.6769 46.3539V56.5234H76.168V46.3539C76.168 44.9782 75.0533 43.8635 73.6776 43.8635H46.878C45.5023 43.8635 44.3876 44.9782 44.3876 46.3539V64.5234C44.3876 65.899 45.5023 67.0137 46.878 67.0137H73.6776C75.0533 67.0137 76.168 65.899 76.168 64.5234V61.5041H78.9399V70.6267C70.3416 71.2004 62.5359 74.7188 56.5288 80.1833V78.2199C56.5288 76.8442 55.4142 75.7295 54.0385 75.7295H20.2914C18.9158 75.7295 17.8011 76.8442 17.8011 78.2199L17.8008 92.8272C17.8008 96.0397 22.7815 96.0397 22.7815 92.8272V89.0113H49.3909C45.0009 96.5557 43.4277 105.575 44.9747 114.165H22.7815V103.453C22.7815 100.24 17.8008 100.24 17.8008 103.453V116.656C17.8008 116.658 17.8011 116.66 17.8011 116.662V142.184C17.8011 145.397 22.7818 145.397 22.7818 142.184V119.146H46.2391C47.0493 121.606 48.1102 123.953 49.3925 126.156L40.5923 140.854C38.9647 143.573 43.2138 146.172 44.8654 143.413L52.4915 130.676C59.2848 139.171 69.7319 144.624 81.4302 144.624C86.3259 144.624 91.0841 143.683 95.573 141.827C98.5418 140.6 96.6389 135.997 93.6704 137.225C89.7881 138.829 85.6698 139.643 81.4305 139.643C63.7521 139.643 49.3696 125.261 49.3696 107.583C49.3696 89.9042 63.7518 75.522 81.4305 75.522C99.1086 75.522 113.491 89.9042 113.491 107.583C113.491 116.962 109.401 125.843 102.268 131.949C99.8272 134.038 103.067 137.822 105.507 135.733C107.299 134.199 108.924 132.513 110.371 130.702L113.734 136.319L109.954 140.453C107.787 142.824 111.462 146.184 113.63 143.814L116.405 140.779L117.982 143.413C119.61 146.134 123.908 143.616 122.255 140.854L119.913 136.943L125.682 130.633L137.541 143.8C139.701 146.199 143.386 142.848 141.242 140.467L128.186 125.971V104.081H142.569C143.945 104.081 145.06 102.967 145.06 101.591V86.5213C145.06 86.519 145.059 86.517 145.059 86.515V78.2195H145.058ZM113.489 48.8442V62.033H91.6575V59.0267C91.6575 59.0224 91.6582 59.0181 91.6582 59.0137C91.6582 59.0094 91.6575 59.0051 91.6575 59.0008V48.8442H113.489ZM71.1873 62.033H49.3683V48.8442H71.1873V62.033ZM22.7818 80.7099H51.5478V84.0303H22.7818V80.7099ZM111.312 80.7099H140.078V84.0303H111.312V80.7099ZM123.204 125.96L117.242 132.482L113.466 126.175C117.325 119.53 119.025 111.73 118.304 104.081H123.204V125.96ZM140.078 99.0999H117.49C116.645 95.5085 115.276 92.1173 113.469 89.011H140.078V99.0999H140.078Z" fill="#FFCC18"/>
</g>
<defs>
<clipPath id="clip0">
<rect width="170" height="170" fill="white"/>
</clipPath>
</defs>
</svg>
