<svg width="170" height="170" viewBox="0 0 170 170" fill="none" xmlns="http://www.w3.org/2000/svg">
<path d="M72.338 141.895C72.8261 138.574 73.2116 135.951 75.6062 133.556C77.5652 131.597 80.662 130.255 84.2486 128.701C89.1461 126.579 94.6967 124.173 99.5553 119.316C101.898 116.971 103.572 114.043 104.403 110.834C105.221 107.46 104.689 104.522 102.942 102.775C102.307 102.14 96.401 96.904 84.6637 108.353C83.3432 109.642 81.943 109.989 80.6152 109.359C79.2539 108.712 77.9779 106.947 78.0161 104.752L137.532 43.2621L138.974 44.7067C139.315 45.0471 139.767 45.2527 140.247 45.2855C140.656 45.3137 150.329 45.8914 154.4 38.5283C155.441 36.6443 155.991 34.2949 156.523 32.0228C157.034 29.84 157.562 27.5829 158.466 26.1458C159.022 25.264 159.715 24.2347 160.449 23.139C164.364 17.3125 166.155 14.3308 165.668 12.17C164.898 8.75869 161.351 6.60946 160.949 6.37537C160.625 6.18659 160.253 6.09334 159.878 6.10638C159.503 6.11943 159.139 6.23822 158.829 6.44908L157.168 7.57467L155.015 5.42078L155.378 5.05754C155.752 4.68395 155.962 4.17722 155.962 3.64885C155.962 3.12048 155.752 2.61373 155.378 2.24009C155.005 1.86645 154.498 1.65652 153.97 1.65649C153.441 1.65646 152.934 1.86633 152.561 2.23992L148.765 6.03737C148.396 6.412 148.19 6.9171 148.193 7.44265C148.195 7.96819 148.404 8.47161 148.776 8.84323C149.148 9.21485 149.651 9.42457 150.177 9.42671C150.702 9.42885 151.207 9.22323 151.582 8.85465L152.2 8.23807L153.814 9.85241L148.422 13.5101L146.157 11.2433L146.519 10.88C146.704 10.6951 146.851 10.4754 146.951 10.2337C147.051 9.99203 147.102 9.73297 147.102 9.47135C147.102 9.20973 147.051 8.95066 146.951 8.70894C146.851 8.46723 146.704 8.2476 146.519 8.06259C146.334 7.87758 146.114 7.73082 145.873 7.63069C145.631 7.53056 145.372 7.47901 145.11 7.47899C144.849 7.47898 144.59 7.53049 144.348 7.6306C144.106 7.7307 143.887 7.87744 143.701 8.06242L139.904 11.8599C139.53 12.2335 139.321 12.7403 139.321 13.2687C139.321 13.7971 139.53 14.3038 139.904 14.6775C140.278 15.0511 140.784 15.261 141.313 15.261C141.841 15.261 142.348 15.0511 142.722 14.6775L143.338 14.0609L145.064 15.7875L139.675 19.4461L137.295 17.0661L137.657 16.7025C137.844 16.5181 137.993 16.2984 138.096 16.056C138.198 15.8137 138.251 15.5535 138.252 15.2905C138.253 15.0276 138.202 14.767 138.102 14.5238C138.002 14.2806 137.854 14.0597 137.668 13.8737C137.482 13.6878 137.261 13.5405 137.018 13.4403C136.775 13.3402 136.515 13.2892 136.252 13.2903C135.989 13.2913 135.728 13.3445 135.486 13.4466C135.244 13.5487 135.024 13.6978 134.84 13.8853L131.042 17.6827C130.855 17.8671 130.706 18.0869 130.604 18.3292C130.502 18.5716 130.449 18.8317 130.447 19.0947C130.446 19.3577 130.497 19.6183 130.598 19.8614C130.698 20.1046 130.845 20.3255 131.031 20.5115C131.217 20.6975 131.438 20.8448 131.681 20.9449C131.924 21.045 132.185 21.0961 132.448 21.095C132.711 21.0939 132.971 21.0408 133.213 20.9387C133.456 20.8365 133.675 20.6874 133.86 20.5L134.478 19.8851L136.318 21.7255L130.928 25.3835L128.688 23.1433L129.051 22.78C129.238 22.5956 129.388 22.3759 129.49 22.1335C129.592 21.8912 129.645 21.631 129.646 21.368C129.647 21.1051 129.596 20.8445 129.496 20.6013C129.396 20.3581 129.248 20.1372 129.062 19.9512C128.877 19.7653 128.656 19.618 128.412 19.5178C128.169 19.4177 127.909 19.3667 127.646 19.3678C127.383 19.3688 127.123 19.422 126.88 19.5241C126.638 19.6262 126.418 19.7753 126.234 19.9628L122.436 23.7599C122.063 24.1335 121.853 24.6403 121.853 25.1687C121.853 25.6971 122.063 26.2038 122.436 26.5775C122.81 26.9511 123.317 27.161 123.845 27.161C124.373 27.161 124.88 26.9511 125.254 26.5775L125.87 25.9592L127.57 27.6599L126.212 28.5813C125.969 28.7462 125.766 28.9627 125.617 29.2152C125.468 29.4678 125.376 29.7502 125.349 30.0422C125.343 30.1053 125.34 30.1684 125.34 30.2312C125.34 30.759 125.55 31.2652 125.923 31.6386L128.541 34.2617L78.5722 82.6224C76.1965 82.8319 74.2611 81.4835 73.5768 80.0425C72.9459 78.7144 73.2936 77.3139 74.5819 75.9937C86.031 64.2551 80.7945 58.3502 80.16 57.715C76.7182 54.2732 68.8344 55.8889 63.6195 61.1018C58.8423 65.879 54.7022 73.112 51.0498 79.4933C48.3753 84.1666 45.8489 88.5807 43.8115 90.619C41.2851 93.1454 37.4306 94.5463 32.9674 96.1682C26.5924 98.4855 19.3637 101.112 13.0336 107.916C7.19214 114.195 4.25233 120.812 4.25233 127.648C4.25563 129.413 4.44652 131.172 4.82177 132.896C6.37302 140.096 11.0351 147.505 19.0739 155.542C26.6365 163.105 33.3263 167.094 40.1267 168.095C48.0987 169.268 55.8686 166.216 63.8798 158.762C70.806 152.319 71.6553 146.539 72.338 141.895V141.895ZM130.443 30.526L159.919 10.5244C160.643 11.1264 161.504 12.0186 161.758 12.9526C161.615 14.2605 158.712 18.5812 157.142 20.9183C156.391 22.0366 155.682 23.0928 155.094 24.0258C153.835 26.0276 153.229 28.6135 152.644 31.1157C152.174 33.1238 151.688 35.1997 150.914 36.6018C148.595 40.7964 143.159 41.2835 141.222 41.3187L130.443 30.526ZM134.716 40.4424L55.4247 122.364L49.4328 116.371L131.356 37.0786L134.716 40.4424ZM55.0534 131.78L53.4282 130.154L55.4711 128.043L57.1313 129.703C57.3593 129.932 57.4874 130.242 57.4874 130.564C57.4874 130.887 57.3593 131.197 57.1313 131.425L56.774 131.78C56.5456 132.007 56.2362 132.135 55.9137 132.135C55.5913 132.135 55.2819 132.007 55.0534 131.78ZM50.6102 127.336L44.4583 121.188L46.5694 119.144L52.6532 125.229L50.6102 127.336ZM47.0502 138.973L41.0915 144.932L26.863 130.703L32.8216 124.745L47.0502 138.973ZM39.5994 125.888L41.5952 123.956L47.8374 130.2L45.9057 132.196L39.5994 125.888ZM42.0923 114.665L43.7524 116.325L41.6417 118.369L40.0148 116.743C39.7869 116.515 39.659 116.205 39.659 115.882C39.659 115.56 39.7869 115.25 40.0148 115.021L40.37 114.666C40.4831 114.553 40.6173 114.463 40.765 114.402C40.9128 114.341 41.0711 114.309 41.231 114.309C41.3909 114.309 41.5492 114.341 41.6969 114.402C41.8447 114.463 41.9789 114.553 42.0919 114.666L42.0923 114.665ZM40.7057 164.154C34.8762 163.295 28.7217 159.557 21.8902 152.726C14.4098 145.245 10.1004 138.485 8.7155 132.057C7.1078 124.599 9.47485 117.591 15.9495 110.631C21.6272 104.53 28.3734 102.077 34.3271 99.9139C39.0319 98.2039 43.4759 96.5889 46.6275 93.4373C49.0424 91.0224 51.5748 86.5974 54.5079 81.4732C58.0364 75.3084 62.0357 68.3208 66.4368 63.9197C70.382 59.9745 75.8582 59.0475 77.3427 60.533C78.2296 61.4202 79.1025 65.6529 71.7294 73.2123C69.2836 75.7201 68.6292 78.9126 69.9776 81.7521C70.4861 82.7694 71.1903 83.6764 72.0499 84.4212C72.9095 85.1659 73.9076 85.7337 74.9869 86.0921L46.6149 113.553L44.9096 111.848C44.4265 111.365 43.8531 110.982 43.222 110.72C42.5909 110.459 41.9144 110.324 41.2313 110.324C40.5482 110.324 39.8718 110.459 39.2407 110.72C38.6095 110.982 38.0361 111.365 37.5531 111.848L37.1978 112.203C36.2237 113.179 35.6767 114.502 35.6767 115.881C35.6767 117.26 36.2237 118.583 37.1978 119.56L38.7773 121.139L36.7814 123.071L34.2304 120.519C34.0454 120.334 33.8258 120.188 33.5841 120.087C33.3424 119.987 33.0833 119.936 32.8216 119.936C32.56 119.936 32.3009 119.987 32.0592 120.087C31.8175 120.188 31.5978 120.334 31.4128 120.519L22.6369 129.295C22.4519 129.48 22.3051 129.7 22.205 129.942C22.1048 130.183 22.0533 130.443 22.0533 130.704C22.0533 130.966 22.1048 131.225 22.205 131.467C22.3051 131.708 22.4519 131.928 22.6369 132.113L39.6827 149.159C40.0563 149.532 40.563 149.742 41.0914 149.742C41.6197 149.742 42.1264 149.532 42.5 149.159L51.2763 140.383C51.6498 140.009 51.8597 139.502 51.8597 138.974C51.8597 138.446 51.6498 137.939 51.2763 137.565L48.7249 135.014L50.6567 133.018L52.2362 134.598C53.2125 135.572 54.5354 136.119 55.9146 136.119C57.2938 136.119 58.6166 135.572 59.593 134.598L59.9479 134.243C60.9219 133.266 61.469 131.944 61.469 130.565C61.469 129.185 60.9219 127.863 59.9479 126.886L58.2426 125.181L74.6629 108.214C75.4191 110.279 76.9375 111.976 78.9059 112.955C81.7458 114.304 84.9383 113.649 87.4458 111.204C95.0048 103.831 99.2378 104.703 100.125 105.592C100.845 106.312 101 107.96 100.531 109.894C99.8772 112.394 98.5673 114.674 96.7367 116.498C92.4159 120.819 87.2353 123.064 82.6645 125.044C78.8691 126.689 75.2841 128.243 72.7889 130.738C69.4613 134.066 68.9197 137.751 68.3951 141.316C67.7424 145.759 67.067 150.355 61.1641 155.847C54.0959 162.423 47.4038 165.14 40.7057 164.154L40.7057 164.154Z" fill="#41C0F6"/>
</svg>
