<svg width="170" height="170" viewBox="0 0 170 170" fill="none" xmlns="http://www.w3.org/2000/svg">
<g clip-path="url(#clip0)">
<path d="M65.2785 108.817C65.2785 108.817 57.1767 100.716 57.1733 100.712C54.3069 97.8459 49.5227 97.8485 46.6586 100.712C43.7596 103.611 43.7596 108.328 46.6586 111.227L54.7638 119.332C56.168 120.736 58.035 121.51 60.0212 121.51C62.007 121.51 63.8741 120.736 65.2785 119.332C68.1775 116.433 68.1775 111.716 65.2785 108.817ZM61.757 115.811C60.8101 116.758 59.2313 116.756 58.2857 115.811L50.1804 107.706C49.2232 106.748 49.2232 105.191 50.1804 104.234C51.1274 103.287 52.7065 103.289 53.6518 104.234L61.757 112.339C62.7139 113.296 62.7139 114.854 61.757 115.811Z" fill="#F0216C"/>
<path d="M54.4783 124.823C54.4783 124.823 41.1825 111.527 41.1705 111.515C40.0061 110.35 38.4147 109.76 36.8199 109.758C35.2345 109.757 33.6457 110.338 32.469 111.514C32.469 111.514 27.4842 116.499 27.4806 116.503C25.1139 118.87 25.1178 122.842 27.4806 125.204C27.4806 125.204 40.7791 138.503 40.7884 138.512C43.1611 140.885 47.1189 140.884 49.4899 138.512C49.4899 138.512 54.4753 133.527 54.4783 133.524C56.8497 131.152 56.847 127.191 54.4783 124.823ZM50.9568 130.002C50.9568 130.002 45.9684 134.99 45.9684 134.99C45.5148 135.444 44.7624 135.442 44.3105 134.99L31.0028 121.682C30.5505 121.23 30.5522 120.475 31.0028 120.024C31.0028 120.024 35.9912 115.036 35.9915 115.036C36.4437 114.584 37.1984 114.585 37.6493 115.036C37.6493 115.036 50.9342 128.321 50.9571 128.344C51.1733 128.56 51.2865 128.865 51.2875 129.172C51.2885 129.474 51.1809 129.777 50.9568 130.002Z" fill="#F0216C"/>
<path d="M20.4739 123.672C19.5017 122.699 17.9249 122.699 16.9524 123.672L14.9755 125.649C14.003 126.622 14.003 128.198 14.9755 129.171C15.9188 130.114 17.5291 130.139 18.497 129.171L20.4739 127.194C21.4464 126.221 21.4464 124.644 20.4739 123.672Z" fill="#F0216C"/>
<path d="M42.3219 145.518C41.3494 144.545 39.7726 144.545 38.8 145.518L36.8231 147.495C35.8506 148.467 35.8506 150.044 36.8231 151.016C37.7638 151.957 39.3808 151.98 40.345 151.016L42.3219 149.04C43.2944 148.067 43.2944 146.49 42.3219 145.518Z" fill="#F0216C"/>
<path d="M32.975 140.724C32.8827 139.352 31.6943 138.315 30.3237 138.407C29.6165 138.454 28.9053 138.17 28.3627 137.627C27.8202 137.084 27.536 136.37 27.5831 135.666C27.6751 134.294 26.6375 133.107 25.2652 133.014C23.8949 132.923 22.7059 133.96 22.614 135.332C22.4702 137.47 23.282 139.59 24.8409 141.149C26.3583 142.666 28.5085 143.522 30.6574 143.375C32.0297 143.283 33.0673 142.096 32.975 140.724Z" fill="#F0216C"/>
<path d="M163.174 4.00806C162.394 4.00806 161.626 4.1402 160.889 4.40184L142.482 10.9336C142.033 11.0929 141.639 11.3778 141.347 11.7543L132.417 23.2688L78.6606 73.6475C76.3324 73.2179 73.8664 72.3596 73.2737 70.6403C72.2355 67.6298 76.3473 62.0988 78.4996 59.8941C78.551 59.8417 78.5998 59.7872 78.6463 59.7304C82.1881 55.414 81.9387 52.4291 81.1057 50.6853C80.0631 48.5028 77.6164 47.2677 74.3913 47.2902C63.3171 47.3683 55.7943 57.0251 51.621 66.1752C46.0492 78.3906 44.5518 81.6737 32.2225 88.1609C31.0052 88.8014 30.5381 90.3071 31.1782 91.5244C31.8187 92.7412 33.3245 93.2088 34.5417 92.5686C48.3768 85.2885 50.4941 80.647 56.1522 68.2424C59.4294 61.0576 65.4903 52.3511 74.4295 52.2707C75.8486 52.2581 76.5256 52.6519 76.6116 52.8322C76.7298 53.0799 76.6561 54.2798 74.8569 56.4971C74.4402 56.9337 72.6349 58.8755 71.0166 61.4112C68.3507 65.5888 67.5253 69.2375 68.5629 72.2566C69.4033 74.7017 71.3602 76.503 74.401 77.6395C74.401 77.6395 59.013 92.0606 58.9961 92.0765C57.9851 93.0241 57.9601 94.6767 58.938 95.6542C58.938 95.6542 70.3356 107.052 70.3386 107.055C71.345 108.061 72.937 107.976 73.9165 106.997L79.9193 100.592C81.5785 103.769 83.8004 105.926 86.5546 107.023C90.4085 108.558 95.1658 107.881 100.311 105.066C101.348 104.498 102.672 105.577 102.184 106.697C100.727 110.042 95.8883 112.117 91.2084 114.123C87.8612 115.558 84.4001 117.042 81.9284 119.114C81.878 119.156 81.8292 119.2 81.7823 119.247C79.2569 121.73 76.9679 124.956 74.3608 129.707C71.8234 134.33 68.9789 140.375 65.212 148.63C62.4738 154.631 58.7557 158.489 54.1607 160.098C48.6889 162.013 41.8387 160.918 33.7996 156.843C23.2513 151.495 14.497 142.741 9.14999 132.193C5.07465 124.154 3.97961 117.304 5.8951 111.832C7.50379 107.237 11.362 103.519 17.3628 100.781C20.442 99.3756 22.8665 98.2566 24.9925 97.2595C26.2376 96.6755 26.7735 95.1926 26.1895 93.9475C25.6054 92.7024 24.1219 92.1665 22.8775 92.7505C20.7677 93.74 18.3585 94.8523 15.2952 96.2502C8.01279 99.5731 3.26874 104.262 1.19454 110.186C-1.18645 116.988 -0.00442105 125.15 4.70809 134.445C10.5306 145.93 20.0628 155.462 31.5478 161.284C37.7328 164.42 43.4152 165.993 48.5298 165.993C51.1017 165.993 53.5305 165.595 55.8063 164.798C61.731 162.724 66.42 157.98 69.7429 150.697C77.4135 133.887 80.9231 127.113 85.2016 122.869C87.1131 121.297 90.0566 120.035 93.1707 118.7C98.7431 116.311 104.505 113.841 106.75 108.685C109.094 103.302 103.023 97.903 97.92 100.696C95.2704 102.146 91.467 103.618 88.3974 102.395C86.3996 101.599 84.7886 99.675 83.5969 96.6668L121.119 56.6296C122.059 55.6262 122.008 54.0501 121.005 53.1094C120.001 52.1688 118.425 52.2202 117.485 53.2236L72.0409 101.713L64.278 93.9505L134.207 28.4156L137.576 31.7851L124.301 45.9498C123.361 46.9532 123.412 48.5294 124.415 49.4697C125.418 50.41 126.995 50.3592 127.935 49.3555L142.042 34.3032C142.227 34.3098 142.422 34.3145 142.637 34.3145C146.101 34.3145 154.63 33.2626 159.008 23.5261C160.466 20.2852 163.683 18.1911 166.125 17.0047C167.957 16.1149 169.294 14.4773 169.795 12.5117C170.876 8.26436 167.544 4.00806 163.174 4.00806ZM163.949 12.524C159.383 14.7416 156.104 17.8395 154.466 21.4825C151.394 28.3134 145.736 29.3334 142.636 29.3334C142.461 29.3334 142.301 29.3297 142.159 29.3244L137.576 24.7414L144.835 15.3824C144.835 15.3824 162.536 9.10141 162.554 9.09477C164.725 8.32446 165.987 11.5342 163.949 12.524Z" fill="#F0216C"/>
</g>
<defs>
<clipPath id="clip0">
<rect width="170" height="170" fill="white"/>
</clipPath>
</defs>
</svg>
