<svg width="496" height="450" viewBox="0 0 496 450" fill="none" xmlns="http://www.w3.org/2000/svg">
<path d="M243.142 449.447C377.426 449.447 486.284 435.241 486.284 417.718C486.284 400.195 377.426 385.99 243.142 385.99C108.858 385.99 0 400.195 0 417.718C0 435.241 108.858 449.447 243.142 449.447Z" fill="#41C0F6"/>
<path opacity="0.5" d="M243.142 449.447C377.426 449.447 486.284 435.241 486.284 417.718C486.284 400.195 377.426 385.99 243.142 385.99C108.858 385.99 0 400.195 0 417.718C0 435.241 108.858 449.447 243.142 449.447Z" fill="white"/>
<path d="M25.7227 380.351H486.645" stroke="#263238" stroke-miterlimit="10"/>
<path d="M460.98 127.66C460.876 127.659 460.775 127.626 460.691 127.564C431.299 107.776 392.774 104.293 348.14 100.262C319.07 97.6361 286.14 94.6562 250.596 86.7776C160.973 66.9259 110.829 1.49653 110.336 0.831947C110.254 0.723626 110.215 0.588032 110.229 0.45267C110.243 0.317309 110.308 0.192318 110.411 0.103048C110.526 0.0204724 110.668 -0.014488 110.808 0.00549645C110.948 0.0254809 111.074 0.0988558 111.161 0.210237C111.665 0.864102 161.541 65.9933 250.81 85.7593C286.323 93.6271 319.22 96.5963 348.258 99.2225C392.999 103.274 431.653 106.726 461.259 126.706C461.377 126.787 461.459 126.911 461.487 127.051C461.515 127.191 461.487 127.337 461.409 127.457C461.357 127.52 461.291 127.571 461.217 127.606C461.143 127.642 461.062 127.66 460.98 127.66Z" fill="#828282"/>
<path d="M445.649 144.125C445.542 144.125 445.436 144.092 445.349 144.028C415.957 124.241 377.444 120.757 332.798 116.727C303.728 114.101 270.799 111.121 235.254 103.231C145.632 83.3796 95.4875 17.9503 94.9944 17.2535C94.9508 17.1978 94.9189 17.1338 94.9006 17.0654C94.8823 16.997 94.8781 16.9256 94.8881 16.8555C94.8981 16.7854 94.9222 16.7181 94.9589 16.6575C94.9956 16.597 95.0441 16.5445 95.1016 16.5032C95.1579 16.461 95.222 16.4302 95.2902 16.4128C95.3584 16.3953 95.4293 16.3914 95.499 16.4014C95.5687 16.4113 95.6357 16.4349 95.6963 16.4708C95.7568 16.5066 95.8097 16.5541 95.852 16.6104C96.3451 17.2642 146.232 82.3827 235.49 102.159C271.003 110.027 303.9 112.996 332.938 115.623C377.679 119.674 416.333 123.126 445.939 143.106C446.057 143.187 446.139 143.311 446.167 143.451C446.195 143.591 446.167 143.737 446.089 143.857C446.044 143.935 445.98 144 445.903 144.047C445.827 144.094 445.739 144.12 445.649 144.125Z" fill="#828282"/>
<path d="M430.313 160.578C430.205 160.579 430.1 160.545 430.013 160.481C400.621 140.694 362.107 137.21 317.462 133.18C288.392 130.554 255.462 127.574 219.918 119.685C130.295 99.7899 80.1511 34.4035 79.658 33.7389C79.6157 33.6826 79.585 33.6185 79.5675 33.5503C79.5501 33.4821 79.5462 33.4112 79.5562 33.3415C79.5661 33.2718 79.5897 33.2048 79.6256 33.1442C79.6614 33.0837 79.7089 33.0308 79.7652 32.9885C79.8215 32.9463 79.8855 32.9156 79.9537 32.8981C80.0219 32.8806 80.0929 32.8768 80.1625 32.8867C80.2322 32.8967 80.2992 32.9203 80.3598 32.9561C80.4204 32.992 80.4733 33.0394 80.5155 33.0957C81.0086 33.7496 130.895 98.8681 220.154 118.645C255.666 126.513 288.574 129.482 317.601 132.108C362.343 136.16 400.996 139.611 430.602 159.592C430.72 159.67 430.802 159.792 430.83 159.931C430.858 160.069 430.83 160.213 430.752 160.331C430.706 160.406 430.641 160.468 430.564 160.511C430.487 160.554 430.401 160.577 430.313 160.578Z" fill="#828282"/>
<path d="M414.969 177.022C414.863 177.027 414.757 176.997 414.669 176.936C385.277 157.149 346.763 153.665 302.118 149.635C273.059 146.998 240.119 144.029 204.574 136.14C114.951 116.288 64.8073 50.8478 64.3142 50.194C64.2289 50.0802 64.1923 49.9373 64.2124 49.7966C64.2325 49.6559 64.3077 49.5289 64.4214 49.4436C64.5351 49.3583 64.6781 49.3217 64.8188 49.3418C64.9595 49.3619 65.0865 49.4371 65.1718 49.5508C65.6648 50.2047 115.552 115.323 204.81 135.1C240.322 142.968 273.23 145.937 302.258 148.563C346.999 152.604 385.652 156.066 415.269 176.047C415.385 176.127 415.465 176.25 415.491 176.388C415.517 176.526 415.487 176.67 415.409 176.786C415.361 176.86 415.296 176.92 415.219 176.961C415.143 177.002 415.056 177.023 414.969 177.022Z" fill="#828282"/>
<path d="M147.511 31.7462C147.511 31.7462 142.656 33.4291 144.296 34.5439C145.936 35.6587 151.381 50.0116 150.255 51.8767C149.13 53.7418 145.603 47.5891 143.545 49.6364C141.487 51.6838 144.478 56.7217 147.651 56.3466C150.824 55.9714 152.313 52.8093 151.563 48.8432C150.813 44.8771 148.251 38.6922 147.929 37.3416C147.608 35.991 149.055 35.2943 151.284 36.5913C153.514 37.8883 157.437 35.6587 158.563 33.2362C159.688 30.8137 158.745 26.719 158.745 26.719C158.745 26.719 159.485 28.7663 155.765 29.6989C152.046 30.6315 148.808 31.1888 147.511 31.7462Z" fill="#828282"/>
<path d="M125.942 96.2105C125.942 96.2105 121.097 97.8934 122.726 99.0082C124.355 100.123 129.811 114.476 128.696 116.341C127.582 118.206 124.034 112.053 121.986 114.101C119.939 116.148 122.919 121.186 126.081 120.811C129.243 120.436 130.744 117.274 130.004 113.307C129.265 109.341 126.649 103.06 126.274 101.752C125.899 100.445 127.346 99.7049 129.629 101.002C131.912 102.299 135.782 100.069 136.897 97.6468C138.011 95.2243 137.079 91.1296 137.079 91.1296C137.079 91.1296 137.829 93.177 134.099 94.1095C130.369 95.0421 127.249 95.6531 125.942 96.2105Z" fill="#828282"/>
<path d="M422.464 112.954C420.034 111.72 417.675 110.349 415.4 108.848C411.97 106.555 410.04 107.659 410.533 109.181C411.026 110.703 408.079 121.497 403.684 127.2C399.289 132.902 399.696 126.396 396.384 125.27C393.072 124.145 391.282 127.414 393.822 131.208C396.363 135.003 402.108 133.856 402.869 131.53C403.63 129.204 409.011 119.01 410.608 116.523C412.206 114.036 413.385 114.176 416.279 117.059C417.514 118.364 419.054 119.34 420.761 119.902C422.467 120.463 424.286 120.591 426.055 120.275C426.055 120.275 420.127 131.637 418.316 135.282C416.504 138.926 415.003 143.535 412.334 143.439C409.665 143.342 406.653 138.079 404.531 141.295C402.408 144.511 408.743 149.988 412.152 148.434C415.561 146.88 417.651 139.741 420.181 134.81C422.71 129.879 430.032 116.888 429.592 115.033C429.153 113.179 425.744 115.087 422.464 112.954Z" fill="#828282"/>
<path d="M353.737 134.809C352.018 133.935 350.351 132.966 348.741 131.905C346.308 130.286 344.979 131.068 345.301 132.14C345.622 133.212 343.564 140.855 340.455 144.885C337.347 148.916 337.636 144.317 335.289 143.524C332.941 142.731 331.687 145.046 333.488 147.726C335.289 150.406 339.341 149.591 339.92 147.951C341.527 144.314 343.352 140.777 345.386 137.361C346.523 135.624 347.359 135.699 349.406 137.736C350.282 138.654 351.372 139.342 352.578 139.736C353.785 140.131 355.07 140.221 356.32 139.997C356.32 139.997 352.129 148.026 350.842 150.588C349.556 153.15 348.506 156.43 346.555 156.366C344.604 156.301 342.546 152.55 341.045 154.865C339.544 157.18 344.025 161.018 346.405 159.914C348.784 158.809 350.296 153.771 352.075 150.266C353.854 146.761 359.042 137.596 358.732 136.332C358.421 135.067 356.084 136.321 353.737 134.809Z" fill="#828282"/>
<path d="M370.651 150.535C369.359 149.888 368.103 149.173 366.888 148.391C365.055 147.169 364.048 147.758 364.294 148.562C364.541 149.366 362.987 155.133 360.639 158.209C358.292 161.286 358.495 157.77 356.748 157.138C355.001 156.505 354.025 158.284 355.387 160.3C356.748 162.315 359.803 161.715 360.2 160.471C361.418 157.731 362.796 155.064 364.326 152.485C365.184 151.178 365.816 151.231 367.36 152.775C368.019 153.469 368.84 153.988 369.749 154.285C370.659 154.583 371.628 154.65 372.569 154.479C372.569 154.479 369.407 160.535 368.443 162.465C367.478 164.394 366.674 166.87 365.227 166.817C363.78 166.763 362.204 163.944 361.068 165.691C359.932 167.439 363.319 170.322 365.13 169.497C366.942 168.671 368.067 164.866 369.418 162.229C370.769 159.592 374.681 152.678 374.445 151.682C374.209 150.685 372.398 151.671 370.651 150.535Z" fill="#828282"/>
<path d="M122.883 31.6171C121.174 30.7436 119.513 29.7775 117.909 28.7229C115.476 27.0936 114.147 27.8761 114.469 28.948C114.79 30.0199 112.732 37.6626 109.623 41.7037C106.515 45.7448 106.804 41.1249 104.457 40.3317C102.109 39.5385 100.855 41.8645 102.656 44.5336C104.457 47.2026 108.509 46.3987 109.088 44.7587C110.695 41.1217 112.52 37.5851 114.554 34.1682C115.691 32.4317 116.527 32.5067 118.574 34.5434C119.44 35.4534 120.517 36.1359 121.71 36.5304C122.903 36.9249 124.175 37.0193 125.413 36.8051C125.413 36.8051 121.211 44.8337 119.935 47.3956C118.66 49.9574 117.599 53.2375 115.648 53.1732C113.697 53.1088 111.639 49.3572 110.138 51.6725C108.637 53.9878 113.118 57.8252 115.498 56.7212C117.877 55.6171 119.389 50.5791 121.168 47.074C122.947 43.5688 128.135 34.3933 127.825 33.1392C127.514 31.885 125.198 33.1285 122.883 31.6171Z" fill="#828282"/>
<path d="M464.806 242.559C464.698 242.558 464.594 242.525 464.506 242.462C430.987 219.888 387.06 215.922 336.198 211.323C303.065 208.322 265.516 204.892 224.955 195.942C171.563 184.151 130.937 158.114 106.262 138.391C79.5175 117.006 65.2075 98.1621 65.0681 97.9798C65.0259 97.9235 64.9952 97.8595 64.9777 97.7913C64.9602 97.7231 64.9564 97.6521 64.9663 97.5825C64.9763 97.5128 64.9999 97.4458 65.0357 97.3852C65.0716 97.3246 65.119 97.2717 65.1753 97.2295C65.2316 97.1873 65.2957 97.1566 65.3639 97.1391C65.4321 97.1216 65.503 97.1177 65.5727 97.1277C65.6424 97.1377 65.7094 97.1612 65.77 97.1971C65.8305 97.2329 65.8834 97.2804 65.9257 97.3367C66.065 97.5189 80.3107 116.277 106.958 137.576C131.548 157.224 172.013 183.122 225.18 194.902C265.677 203.874 303.194 207.261 336.294 210.252C387.307 214.872 431.352 218.827 465.106 241.573C465.224 241.653 465.306 241.777 465.334 241.917C465.362 242.058 465.334 242.203 465.256 242.323C465.205 242.395 465.138 242.454 465.06 242.495C464.981 242.536 464.894 242.558 464.806 242.559Z" fill="#828282"/>
<path d="M447.324 261.316C447.217 261.317 447.111 261.283 447.024 261.22C413.495 238.645 369.568 234.679 318.716 230.081C285.583 227.079 248.023 223.649 207.462 214.699C154.081 202.908 113.456 176.871 88.7801 157.148C62.0358 135.763 47.7258 116.919 47.5757 116.737C47.4931 116.622 47.4582 116.48 47.4782 116.34C47.4981 116.2 47.5715 116.074 47.6829 115.987C47.7966 115.901 47.9396 115.865 48.0803 115.885C48.221 115.905 48.348 115.98 48.4332 116.094C48.5726 116.276 62.829 135.034 89.4768 156.333C114.056 175.981 154.531 201.879 207.698 213.659C248.195 222.631 285.712 226.018 318.813 229.009C369.814 233.629 413.87 237.584 447.614 260.33C447.711 260.393 447.785 260.485 447.825 260.593C447.866 260.702 447.87 260.82 447.837 260.931C447.805 261.042 447.737 261.139 447.645 261.209C447.552 261.278 447.44 261.316 447.324 261.316Z" fill="#828282"/>
<path d="M429.843 280.075C429.736 280.074 429.631 280.041 429.543 279.979C396.014 257.361 352.087 253.438 301.214 248.84C268.081 245.838 230.532 242.408 189.97 233.458C136.578 221.667 95.9528 195.63 71.2774 175.907C44.4795 154.522 30.2231 135.678 30.0838 135.496C30.0415 135.44 30.0108 135.376 29.9933 135.307C29.9759 135.239 29.972 135.168 29.9819 135.099C29.9919 135.029 30.0155 134.962 30.0513 134.901C30.0872 134.841 30.1346 134.788 30.1909 134.746C30.2473 134.703 30.3113 134.673 30.3795 134.655C30.4477 134.638 30.5186 134.634 30.5883 134.644C30.658 134.654 30.725 134.677 30.7856 134.713C30.8461 134.749 30.8991 134.797 30.9413 134.853C31.0806 135.035 45.3264 153.793 71.9741 175.092C96.5638 194.74 137.029 220.638 190.195 232.418C230.692 241.39 268.209 244.777 301.31 247.768C352.322 252.388 396.367 256.343 430.122 279.089C430.24 279.169 430.322 279.293 430.35 279.433C430.378 279.574 430.35 279.719 430.272 279.839C430.223 279.909 430.159 279.966 430.085 280.007C430.01 280.048 429.928 280.071 429.843 280.075Z" fill="#828282"/>
<path d="M412.348 298.834C412.24 298.835 412.135 298.801 412.048 298.738C378.518 276.163 334.591 272.197 283.74 267.599C250.607 264.597 213.047 261.167 172.486 252.217C119.104 240.426 78.4789 214.389 53.8035 194.666C27.0593 173.281 12.7492 154.437 12.5991 154.255C12.5166 154.14 12.4816 153.998 12.5016 153.858C12.5216 153.718 12.595 153.592 12.7063 153.505C12.8201 153.419 12.963 153.383 13.1037 153.403C13.2444 153.423 13.3714 153.498 13.4567 153.612C13.596 153.794 27.8525 172.552 54.5002 193.851C79.0792 213.499 119.555 239.397 172.722 251.177C213.218 260.149 250.735 263.536 283.836 266.527C334.838 271.147 378.893 275.102 412.648 297.848C412.764 297.93 412.844 298.055 412.87 298.195C412.896 298.335 412.866 298.48 412.787 298.598C412.739 298.67 412.673 298.729 412.597 298.77C412.52 298.811 412.435 298.833 412.348 298.834Z" fill="#828282"/>
<path d="M120.689 197.689C120.689 197.689 115.158 199.607 117.066 200.904C118.974 202.201 125.148 218.537 123.873 220.67C122.597 222.803 118.513 215.782 116.219 218.119C113.926 220.456 117.291 226.191 120.893 225.762C124.495 225.333 126.253 221.732 125.363 217.262C124.473 212.792 121.536 205.578 121.075 204.088C120.614 202.598 122.351 201.751 124.902 203.241C127.453 204.731 131.912 202.169 133.188 199.414C134.463 196.66 133.402 191.975 133.402 191.975C133.402 191.975 134.249 194.312 130.004 195.373C125.759 196.434 122.201 197.056 120.689 197.689Z" fill="#828282"/>
<path d="M366.073 199.606C366.073 199.606 360.553 201.525 362.461 202.822C364.369 204.119 370.543 220.455 369.267 222.577C367.992 224.7 363.908 217.689 361.614 220.026C359.32 222.363 362.686 228.108 366.287 227.68C369.889 227.251 371.647 223.639 370.747 219.179C369.846 214.72 366.92 207.496 366.459 206.006C365.998 204.516 367.735 203.669 370.286 205.159C372.837 206.649 377.296 204.087 378.572 201.332C379.847 198.577 378.786 193.893 378.786 193.893C378.786 193.893 379.633 196.23 375.388 197.291C371.143 198.352 367.563 198.974 366.073 199.606Z" fill="#828282"/>
<path d="M339.934 253.663C339.934 253.663 334.403 255.582 336.321 256.879C338.24 258.176 344.393 274.512 343.117 276.656C341.842 278.8 337.811 271.768 335.464 274.105C333.116 276.441 336.536 282.176 340.148 281.747C343.76 281.318 345.454 277.717 344.607 273.247C343.76 268.777 340.78 261.563 340.32 260.073C339.859 258.583 341.595 257.736 344.146 259.226C346.697 260.716 351.167 258.155 352.443 255.4C353.718 252.645 352.647 247.961 352.647 247.961C352.647 247.961 353.504 250.297 349.249 251.359C344.993 252.42 341.424 253.074 339.934 253.663Z" fill="#828282"/>
<path d="M92.626 165.52C89.8599 164.125 87.1725 162.579 84.5759 160.889C80.6527 158.263 78.5089 159.517 79.0234 161.265C79.5379 163.012 76.2257 175.296 71.2199 181.813C66.214 188.33 66.6642 180.881 62.8911 179.605C59.118 178.329 57.0706 182.07 59.9755 186.379C62.8804 190.688 69.419 189.391 70.2766 186.744C71.1341 184.096 77.2869 172.477 79.0984 169.668C80.91 166.86 82.3142 166.989 85.5299 170.279C86.9392 171.762 88.6947 172.871 90.6386 173.507C92.5826 174.143 94.6541 174.286 96.6671 173.924C96.6671 173.924 89.9569 186.83 87.8988 190.956C85.8408 195.083 84.1257 200.379 81.0707 200.271C78.0158 200.164 74.6393 194.119 72.1739 197.849C69.7085 201.579 76.9867 207.764 80.8671 205.995C84.7474 204.227 87.1485 196.091 90.0212 190.463C92.8939 184.836 101.255 170.033 100.74 167.953C100.226 165.874 96.3562 167.953 92.626 165.52Z" fill="#828282"/>
<path d="M405.958 227.262C404.002 226.262 402.102 225.157 400.266 223.949C397.501 222.095 395.979 222.985 396.343 224.217C396.708 225.45 394.371 234.143 390.823 238.742C387.275 243.34 387.607 238.088 384.938 237.187C382.269 236.287 380.822 238.935 382.869 241.979C384.917 245.023 389.558 244.123 390.158 242.236C391.993 238.088 394.077 234.054 396.397 230.156C397.683 228.183 398.648 228.269 400.985 230.595C401.982 231.644 403.224 232.428 404.599 232.877C405.974 233.326 407.44 233.426 408.863 233.168C408.863 233.168 404.115 242.354 402.625 245.248C401.135 248.142 399.956 251.905 397.79 251.83C395.625 251.755 393.213 247.478 391.498 250.125C389.783 252.773 394.907 257.136 397.651 255.881C400.395 254.627 402.089 248.871 404.082 244.894C406.076 240.918 412.025 230.445 411.672 228.944C411.318 227.444 408.606 228.977 405.958 227.262Z" fill="#828282"/>
<path d="M425.217 245.185C423.741 244.434 422.31 243.6 420.929 242.687C418.839 241.294 417.713 241.969 417.97 242.891C418.228 243.813 416.48 250.394 413.811 253.846C411.142 257.297 411.378 253.353 409.374 252.667C407.369 251.981 406.265 253.985 407.819 256.279C409.374 258.573 412.847 257.887 413.308 256.483C414.693 253.355 416.265 250.312 418.013 247.371C418.978 245.881 419.707 245.946 421.465 247.704C422.217 248.493 423.153 249.083 424.19 249.422C425.226 249.76 426.33 249.837 427.403 249.644C427.403 249.644 423.802 256.547 422.698 258.744C421.593 260.942 420.693 263.772 419.064 263.707C417.434 263.643 415.612 260.427 414.326 262.421C413.04 264.415 416.888 267.706 418.957 266.709C421.025 265.712 422.301 261.424 423.834 258.423C425.367 255.421 429.826 247.532 429.558 246.407C429.29 245.281 427.21 246.482 425.217 245.185Z" fill="#828282"/>
<path d="M79.3236 133.127C77.3654 132.128 75.4651 131.018 73.6317 129.805C70.8555 127.95 69.3441 128.84 69.6978 130.073C70.0515 131.305 67.7255 139.998 64.1882 144.608C60.6509 149.217 60.9724 143.943 58.2926 143.043C55.6129 142.142 54.1765 144.79 56.2346 147.834C58.2926 150.878 62.9126 149.978 63.5236 148.091C65.3521 143.943 67.4356 139.912 69.7621 136.022C71.0484 134.039 72.0024 134.124 74.3392 136.45C75.3362 137.499 76.5782 138.283 77.9535 138.732C79.3288 139.181 80.7942 139.281 82.2177 139.023C82.2177 139.023 77.437 148.177 75.9792 151.103C74.5214 154.03 73.3102 157.76 71.1449 157.685C68.9796 157.61 66.5785 153.333 64.8635 155.981C63.1484 158.628 68.2614 162.991 71.0055 161.737C73.7496 160.483 75.4433 154.737 77.437 150.75C79.4308 146.762 85.3799 136.3 85.0262 134.81C84.6724 133.32 81.9605 134.843 79.3236 133.127Z" fill="#828282"/>
<path d="M68.605 342.148C68.605 342.148 40.1886 292.283 46.738 279.603C53.2874 266.922 70.0414 289.743 70.0414 289.743C70.0414 289.743 55.4741 243.254 63.4813 222.974C71.4885 202.693 85.3269 222.974 86.0558 237.337C86.7847 251.701 83.1402 276.226 83.1402 276.226C83.1402 276.226 88.9714 225.503 102.799 240.724C116.627 255.945 85.3269 306.668 85.3269 306.668C85.3269 306.668 106.444 294.877 105.693 310.055C104.943 325.234 80.2353 338.825 80.2353 338.825" fill="#41C0F6"/>
<path d="M68.8168 332.854C68.8168 332.854 42.5442 308.339 55.3429 297.352C68.1415 286.365 74.8838 309.143 74.8838 309.143C74.8838 309.143 60.7346 239.03 83.6092 236.489C106.484 233.949 89.6762 297.352 89.6762 297.352C89.6762 297.352 109.217 270.308 107.899 292.282C106.58 314.256 77.5851 332.854 77.5851 332.854" stroke="#263238" stroke-miterlimit="10"/>
<path d="M81.7343 328.396L63.9727 309.155" stroke="#263238" stroke-miterlimit="10"/>
<path d="M78.0273 329.875L82.8402 273.632" stroke="#263238" stroke-miterlimit="10"/>
<path d="M77.2852 325.801L93.2031 304.716" stroke="#263238" stroke-miterlimit="10"/>
<path d="M100.303 321.878H51.1875L56.0969 379.815H95.3932L100.303 321.878Z" fill="#263238"/>
<path d="M187.584 253.534C187.584 253.534 192.482 386.14 187.584 410.762C182.685 435.383 161.729 437.238 113.697 433.55C65.6641 429.863 -5.16796 422.435 26.8501 409.572C58.8681 396.709 153.679 399.721 145.672 407.728C137.664 415.735 93.3409 413.27 80.4136 408.35C67.4863 403.43 132.123 387.415 166.606 391.724C201.09 396.034 220.202 411.426 303.286 432.972C386.37 454.517 446.74 430.506 444.896 413.892C443.053 397.277 390.722 396.602 371.631 396.602" stroke="#263238" stroke-width="2" stroke-linecap="round" stroke-linejoin="round"/>
<path d="M282.984 328.825L309.15 321.343L390.208 327.11L375.18 335.106L282.984 328.825Z" fill="#666666" stroke="#263238" stroke-linecap="round" stroke-linejoin="round"/>
<path d="M390.211 327.11L389.568 413.345L373.746 426.262L375.182 335.107L390.211 327.11Z" fill="#2B2B2B" stroke="#263238" stroke-linecap="round" stroke-linejoin="round"/>
<path d="M285.988 412.659L287.221 415.479L291.798 416.175L294.381 413.71L285.988 412.659Z" fill="#263238" stroke="#263238" stroke-linecap="round" stroke-linejoin="round"/>
<path d="M362.988 424.45L364.21 427.269L368.787 427.966L371.371 425.501L362.988 424.45Z" fill="#263238" stroke="#263238" stroke-linecap="round" stroke-linejoin="round"/>
<path d="M282.989 328.824L281.734 411.758L373.747 426.261L375.184 335.105L282.989 328.824Z" fill="#404040" stroke="#263238" stroke-linecap="round" stroke-linejoin="round"/>
<path d="M290.308 336.661L289.258 406.26L366.457 418.426L367.668 341.935L290.308 336.661Z" fill="black" stroke="#263238" stroke-linecap="round" stroke-linejoin="round"/>
<path d="M293.738 404.759L366.489 416.228L367.668 341.934L294.757 336.96L293.738 404.759Z" fill="#263238" stroke="#263238" stroke-linecap="round" stroke-linejoin="round"/>
<path d="M294.559 350.188L367.427 356.898L367.663 341.934L294.752 336.96L294.559 350.188Z" fill="#41C0F6" stroke="#263238" stroke-linecap="round" stroke-linejoin="round"/>
<path d="M307.053 343.628C307.053 344.317 306.849 344.99 306.466 345.563C306.083 346.136 305.539 346.583 304.903 346.846C304.266 347.11 303.566 347.179 302.89 347.045C302.214 346.91 301.594 346.578 301.106 346.091C300.619 345.604 300.287 344.983 300.153 344.307C300.018 343.632 300.087 342.931 300.351 342.295C300.615 341.658 301.061 341.114 301.634 340.731C302.207 340.348 302.881 340.144 303.57 340.144C304.028 340.143 304.481 340.232 304.904 340.406C305.328 340.581 305.712 340.837 306.036 341.161C306.36 341.485 306.616 341.87 306.791 342.293C306.966 342.716 307.055 343.17 307.053 343.628Z" fill="#263238" stroke="#263238" stroke-linecap="round" stroke-linejoin="round"/>
<path d="M316.515 348.108C318.439 348.108 319.999 346.549 319.999 344.625C319.999 342.701 318.439 341.141 316.515 341.141C314.591 341.141 313.031 342.701 313.031 344.625C313.031 346.549 314.591 348.108 316.515 348.108Z" fill="#263238" stroke="#263238" stroke-linecap="round" stroke-linejoin="round"/>
<path d="M332.932 345.621C332.932 346.31 332.728 346.984 332.345 347.557C331.962 348.13 331.418 348.576 330.782 348.84C330.145 349.104 329.445 349.173 328.769 349.038C328.093 348.904 327.472 348.572 326.985 348.085C326.498 347.598 326.166 346.977 326.032 346.301C325.897 345.625 325.966 344.925 326.23 344.288C326.494 343.652 326.94 343.108 327.513 342.725C328.086 342.342 328.76 342.138 329.449 342.138C329.906 342.136 330.36 342.225 330.783 342.4C331.207 342.575 331.591 342.831 331.915 343.155C332.239 343.479 332.495 343.863 332.67 344.287C332.845 344.71 332.934 345.164 332.932 345.621Z" fill="#263238" stroke="#263238" stroke-linecap="round" stroke-linejoin="round"/>
<path d="M345.885 346.618C345.885 347.307 345.681 347.981 345.298 348.554C344.915 349.127 344.371 349.573 343.735 349.837C343.098 350.1 342.398 350.169 341.722 350.035C341.046 349.901 340.426 349.569 339.938 349.082C339.451 348.594 339.119 347.974 338.985 347.298C338.85 346.622 338.919 345.922 339.183 345.285C339.447 344.649 339.893 344.104 340.466 343.722C341.039 343.339 341.713 343.135 342.402 343.135C342.86 343.133 343.313 343.222 343.737 343.397C344.16 343.571 344.544 343.828 344.868 344.152C345.192 344.476 345.449 344.86 345.623 345.283C345.798 345.707 345.887 346.16 345.885 346.618Z" fill="#263238" stroke="#263238" stroke-linecap="round" stroke-linejoin="round"/>
<path d="M319.266 326.562V324.419L323.285 323.39L352.613 325.448L352.27 327.506L349.44 328.814L319.266 326.562Z" fill="#263238"/>
<path d="M287.334 302.521C287.334 302.521 281.074 313.486 281.857 316.23C282.639 318.974 295.567 321.322 301.441 325.234C307.315 329.147 312.792 330.326 316.319 329.147C319.845 327.968 322.975 328.364 321.41 324.055C319.845 319.746 315.14 320.539 311.624 318.578C308.108 316.616 298.289 306.24 297.507 305.061C296.724 303.882 287.334 302.521 287.334 302.521Z" fill="#41C0F6" stroke="#263238" stroke-linecap="round" stroke-linejoin="round"/>
<path d="M298.798 306.851C298.798 306.851 296.815 310.817 295.496 311.138" stroke="#263238" stroke-linecap="round" stroke-linejoin="round"/>
<path d="M301.108 309.166C301.108 309.166 301.108 313.121 299.125 314.118" stroke="#263238" stroke-linecap="round" stroke-linejoin="round"/>
<path d="M305.068 313.454C305.068 313.454 305.733 314.44 303.75 316.091" stroke="#263238" stroke-linecap="round" stroke-linejoin="round"/>
<path d="M308.71 316.422C308.71 316.422 308.378 316.755 306.395 318.405" stroke="#263238" stroke-linecap="round" stroke-linejoin="round"/>
<path d="M312.748 319.092C312.153 319.472 311.636 319.963 311.226 320.539C310.145 321.935 309.347 323.53 308.879 325.234C304.524 322.038 299.784 319.402 294.772 317.387C290.721 315.702 286.528 314.382 282.242 313.443C281.89 314.323 281.757 315.276 281.856 316.219C282.638 318.952 295.566 321.31 301.44 325.223C307.314 329.135 312.791 330.314 316.318 329.135C319.844 327.956 322.974 328.353 321.409 324.044C320.005 320.196 316.082 320.41 312.748 319.092Z" fill="white" stroke="#263238" stroke-linecap="round" stroke-linejoin="round"/>
<path d="M170.383 142.538L164.895 169.122L167.853 168.693L175.024 144.65L170.383 142.538Z" fill="#263238" stroke="#263238" stroke-linecap="round" stroke-linejoin="round"/>
<path d="M214.745 414.985C215.357 417.271 216.205 419.487 217.275 421.598C218.551 423.635 236.966 433.389 235.937 437.956C235.551 439.724 234.147 442.308 225.711 442.822C217.275 443.337 209.182 437.023 205.259 434.89C199.138 431.578 198.099 430.034 198.827 426.711C199.556 423.388 202.665 412.133 202.665 412.133C206.589 413.477 210.635 414.432 214.745 414.985Z" fill="#41C0F6" stroke="#263238" stroke-linecap="round" stroke-linejoin="round"/>
<path d="M207.707 421.705C208.856 420.784 210.18 420.104 211.598 419.708C213.017 419.312 214.501 419.208 215.961 419.4" stroke="#263238" stroke-linecap="round" stroke-linejoin="round"/>
<path d="M210.008 423.688C210.008 423.688 213.974 420.815 217.275 421.597" stroke="#263238" stroke-linecap="round" stroke-linejoin="round"/>
<path d="M213.309 426.337C213.309 426.337 218.261 423.357 221.23 425.008" stroke="#263238" stroke-linecap="round" stroke-linejoin="round"/>
<path d="M217.277 428.973C217.277 428.973 221.565 426.658 224.866 427.655" stroke="#263238" stroke-linecap="round" stroke-linejoin="round"/>
<path d="M205.506 421.715C205.506 423.623 204.595 425.178 203.469 425.178C202.344 425.178 201.422 423.623 201.422 421.715C201.422 419.807 202.333 418.264 203.469 418.264C204.605 418.264 205.506 419.818 205.506 421.715Z" fill="white" stroke="#263238" stroke-linecap="round" stroke-linejoin="round"/>
<path d="M231.93 432.199C229.657 432.199 226.227 432.617 224.426 434.89C221.607 438.47 221.361 439.499 221.361 439.499C216.83 436.284 212.044 433.444 207.051 431.01C204.021 429.648 201.355 427.592 199.268 425.007C199.097 425.661 198.958 426.229 198.861 426.668C198.1 429.991 199.14 431.535 205.293 434.847C209.216 436.991 217.309 443.283 225.745 442.779C234.181 442.275 235.585 439.681 235.971 437.913C236.282 436.444 234.502 434.365 231.93 432.199Z" fill="white" stroke="#263238" stroke-linecap="round" stroke-linejoin="round"/>
<path d="M226.871 60.8799C226.871 60.8799 245.308 63.1845 248.309 69.766C251.311 76.3475 263.456 129.686 264.442 132.644C265.428 135.603 290.114 140.876 304.939 140.876C319.763 140.876 313.825 142.527 309.226 145.486C304.628 148.444 290.789 151.746 276.629 153.718C262.469 155.69 252.929 154.372 248.652 148.123C244.375 141.873 238.062 111.581 233.785 91.2149C229.508 70.8486 226.871 60.8799 226.871 60.8799Z" fill="white" stroke="#263238" stroke-linecap="round" stroke-linejoin="round"/>
<path d="M248.262 69.777C245.304 63.1955 226.824 60.8909 226.824 60.8909C226.824 60.8909 229.45 70.7632 233.738 91.183C235.132 97.8503 236.75 105.579 238.433 113.179C239.816 112.953 241.424 112.653 243.278 112.246C247.855 111.249 253.74 107.862 257.695 105.321C254.04 89.9825 249.838 73.2714 248.262 69.777Z" fill="#41C0F6" stroke="#263238" stroke-linecap="round" stroke-linejoin="round"/>
<path d="M237.125 107.004C237.918 110.702 238.744 114.443 239.58 118.087C246.594 116.506 253.1 113.189 258.499 108.44C257.749 105.342 256.977 102.137 256.194 98.9644C250.561 103.112 244.027 105.867 237.125 107.004Z" fill="#263238" stroke="#263238" stroke-linecap="round" stroke-linejoin="round"/>
<path d="M328.938 128.786C328.938 128.786 332.41 121.282 332.786 120.843C333.161 120.403 341.918 119.771 339.614 122.826C339.314 123.212 333.836 123.962 333.836 123.962L332.528 127.038L328.938 128.786Z" fill="white" stroke="#263238" stroke-linecap="round" stroke-linejoin="round"/>
<path d="M335.826 201.781C324.314 190.912 282.166 188.919 265.08 185.649C260.942 184.856 257.651 184.138 255.015 183.505C249.998 160.191 237.628 115.332 235.452 91.1604C234.916 85.1898 232.59 57.3738 221.517 60.075C200.079 65.3166 162.562 76.0143 161.244 103.144C160.172 125.001 169.251 148.24 173.26 169.496C175.253 180.107 177.119 189.015 179.016 196.454H178.855C178.855 196.454 196.96 278.434 196.96 291.929C196.96 305.424 194.323 312.67 193.669 332.426C193.015 352.181 201.633 414.963 203.606 416.249C205.578 417.535 209.855 417.567 211.838 416.903C213.821 416.238 214.142 417.235 214.796 414.931C215.45 412.626 223.372 367.595 225.655 319.863C227.938 272.131 231.529 236.618 245.678 226.746C259.827 216.874 317.121 218.171 317.496 225.428C317.872 232.685 285.125 301.201 286.454 302.519C287.783 303.838 295.029 305.81 296.658 305.156C298.288 304.502 329.245 254.455 339.128 237.337C349.011 220.218 347.349 212.64 335.826 201.781Z" fill="#41C0F6" stroke="#263238" stroke-linecap="round" stroke-linejoin="round"/>
<path d="M221.468 60.1294C209.762 62.9914 193.265 67.4934 180.488 75.3934C185.612 82.8217 199.504 101.773 209.516 104.206C221.307 107.068 226.355 73.4211 225.273 60.4617C224.085 59.9007 222.735 59.7829 221.468 60.1294Z" fill="#263238" stroke="#263238" stroke-linecap="round" stroke-linejoin="round"/>
<path d="M221.883 54.7699C221.883 54.7699 229.472 113.403 250.567 143.738L256.463 147.962C257.535 147.962 237.661 103.134 228.593 54.7056L221.883 54.7699Z" fill="#263238" stroke="#263238" stroke-linecap="round" stroke-linejoin="round"/>
<path d="M220.527 67.8035C219.305 66.1849 218.094 64.9308 217 63.4301C213.688 58.8423 214.964 49.0665 218.737 45.6578C218.42 44.9566 218.039 44.2857 217.601 43.6534C213.313 37.7793 196.398 40.7807 192.068 45.6042C193.172 47.5398 194.119 49.5616 194.897 51.6498C195.969 54.9299 196.88 58.6172 196.184 62.0795C195.294 66.5601 191.66 68.1894 188.52 70.987C192.1 77.0862 202.079 90.8495 206.496 92.9505C211.737 95.5016 218.908 74.0634 220.527 67.8035Z" fill="white" stroke="#263238" stroke-linecap="round" stroke-linejoin="round"/>
<path d="M215.646 50.2782C216.283 48.5694 217.4 47.0806 218.862 45.9906C223.814 42.8928 235.906 38.8624 239.003 32.9776C239.313 29.8086 238.978 26.6097 238.019 23.5737C237.059 20.5377 235.494 17.7275 233.419 15.3126C226.301 6.64084 212.656 2.01019 201.658 5.59037C187.209 10.3282 184.047 23.6842 187.005 33.6101C188.666 39.184 191.55 44.8115 193.436 48.8741C196.556 49.6887 201.487 50.0746 207.136 50.3426C209.972 50.4767 212.813 50.4552 215.646 50.2782Z" fill="#263238" stroke="#263238" stroke-linecap="round" stroke-linejoin="round"/>
<path d="M205.454 44.0504C205.454 44.0504 203.406 32.9883 199.119 32.9883C194.831 32.9883 192.837 43.2679 194.831 48.4131C196.825 53.5582 200.544 51.5538 200.544 51.5538C201.956 54.8749 203.641 58.073 205.582 61.1152C207.876 64.2559 215.508 71.7057 224.287 71.7057C227.996 71.7057 233.141 52.8508 234.288 45.4224C235.435 37.9941 235.425 34.8642 233.431 28.8615C231.437 22.8588 223.14 26.5783 216.001 31.7127C211.595 34.9716 207.988 39.1907 205.454 44.0504Z" fill="white" stroke="#263238" stroke-linecap="round" stroke-linejoin="round"/>
<path d="M210.602 30.5231C210.602 30.5231 219.702 27.8862 227.752 37.0403C235.577 45.9478 244.763 40.8241 248.001 35.6897C253.103 27.6075 259.073 33.1171 259.073 23.2662C259.073 13.4154 252.471 12.6651 245.696 14.5087C238.922 16.3524 242.62 4.65789 233.38 3.4252C224.14 2.1925 221.685 7.71284 219.22 9.58868" fill="#263238"/>
<path d="M210.602 30.5231C210.602 30.5231 219.702 27.8862 227.752 37.0403C235.577 45.9478 244.763 40.8241 248.001 35.6897C253.103 27.6075 259.073 33.1171 259.073 23.2662C259.073 13.4154 252.471 12.6651 245.696 14.5087C238.922 16.3524 242.62 4.65789 233.38 3.4252C224.14 2.1925 221.685 7.71284 219.22 9.58868" stroke="#263238" stroke-linecap="round" stroke-linejoin="round"/>
<path d="M233.999 39.8162C233.999 39.8162 231.598 40.0091 231.394 41.8206C231.191 43.6322 232.391 50.2244 231.995 53.6116C231.598 56.9989 227.193 56.2164 224.984 54.4156" fill="white"/>
<path d="M233.999 39.8162C233.999 39.8162 231.598 40.0091 231.394 41.8206C231.191 43.6322 232.391 50.2244 231.995 53.6116C231.598 56.9989 227.193 56.2164 224.984 54.4156" stroke="#263238" stroke-linecap="round" stroke-linejoin="round"/>
<path d="M224.032 38.4126C224.032 38.4126 218.673 34.4144 215.457 38.8092L224.032 38.4126Z" fill="white"/>
<path d="M224.032 38.4126C224.032 38.4126 218.673 34.4144 215.457 38.8092" stroke="#263238" stroke-linecap="round" stroke-linejoin="round"/>
<path d="M223.181 41.6177L222.988 44.2224C222.988 44.2224 218.583 45.8196 215.785 43.2148" fill="white"/>
<path d="M223.181 41.6177L222.988 44.2224C222.988 44.2224 218.583 45.8196 215.785 43.2148" stroke="#263238" stroke-linecap="round" stroke-linejoin="round"/>
<path d="M215.017 217.582C205.468 221.799 195.142 223.972 184.703 223.96C189.988 249.107 196.912 283.633 196.912 291.983C196.912 305.478 194.275 312.724 193.621 332.48C192.968 352.235 201.586 415.017 203.558 416.303C205.53 417.589 209.807 417.622 211.79 416.957C213.773 416.292 214.095 417.289 214.749 414.985C215.403 412.68 223.324 367.649 225.607 319.917C227.891 272.185 231.481 236.673 245.631 226.8C259.78 216.928 304.018 227.24 304.35 234.475C304.682 241.711 285.131 301.201 286.46 302.52C287.789 303.838 295.035 305.811 296.664 305.157C298.294 304.503 329.251 254.456 339.134 237.337C349.017 220.219 347.355 212.683 335.832 201.782C324.309 190.881 282.172 188.919 265.086 185.65C260.948 184.856 257.658 184.138 255.021 183.506C252.159 187.29 240.368 206.391 215.017 217.582Z" fill="#263238"/>
<path d="M304.348 234.475C304.348 234.475 322.291 245.377 330.309 246.106" stroke="#6B6B6B" stroke-linecap="round" stroke-linejoin="round"/>
<path d="M293.168 228.623C293.168 228.623 307.735 243.919 318.658 250.479" stroke="#6B6B6B" stroke-linecap="round" stroke-linejoin="round"/>
<path d="M295.355 240.274C295.355 240.274 306.278 257.757 315.722 262.13" stroke="#6B6B6B" stroke-linecap="round" stroke-linejoin="round"/>
<path d="M248.75 225.718C248.75 225.718 256.028 217.7 285.195 212.609" stroke="#6B6B6B" stroke-linecap="round" stroke-linejoin="round"/>
<path d="M272.781 219.158C272.781 219.158 291.711 217.014 301.905 215.514" stroke="#6B6B6B" stroke-linecap="round" stroke-linejoin="round"/>
<path d="M228.32 306.551C228.32 306.551 218.126 342.996 210.848 364.81" stroke="#6B6B6B" stroke-linecap="round" stroke-linejoin="round"/>
<path d="M223.261 342.964C219.662 359.482 212.732 375.093 202.895 388.842" stroke="#6B6B6B" stroke-linecap="round" stroke-linejoin="round"/>
<path d="M215.017 217.582C205.468 221.799 195.142 223.972 184.703 223.96C189.988 249.107 196.912 283.633 196.912 291.983C196.912 305.478 194.275 312.724 193.621 332.48C192.968 352.235 201.586 415.017 203.558 416.303C205.53 417.589 209.807 417.622 211.79 416.957C213.773 416.292 214.095 417.289 214.749 414.985C215.403 412.68 223.324 367.649 225.607 319.917C227.891 272.185 231.481 236.673 245.631 226.8C259.78 216.928 304.018 227.24 304.35 234.475C304.682 241.711 285.131 301.201 286.46 302.52C287.789 303.838 295.035 305.811 296.665 305.157C298.294 304.503 329.251 254.456 339.134 237.337C349.017 220.219 347.355 212.683 335.832 201.782C324.309 190.881 282.172 188.919 265.086 185.65C260.948 184.856 257.658 184.138 255.021 183.506C252.159 187.29 240.368 206.391 215.017 217.582Z" stroke="#263238" stroke-linecap="round" stroke-linejoin="round"/>
<path d="M181.559 247.434L183.542 251.989C183.754 252.471 184.098 252.882 184.534 253.176C184.971 253.47 185.481 253.635 186.007 253.651L189.759 253.747C190.325 253.764 190.882 253.607 191.357 253.299C191.832 252.991 192.202 252.545 192.417 252.022L194.561 246.726L181.559 247.434Z" fill="white" stroke="#263238" stroke-linecap="round" stroke-linejoin="round"/>
<path d="M264.365 163.204C265.212 161.21 261.739 155.004 260.871 153.353C253.368 139.182 232.165 138.85 222.829 151.209C219.431 155.711 217.608 161.51 213.181 164.962C203.684 172.347 190.125 163.343 179.952 162.196C157.796 159.699 142.607 181.019 143.196 201.31C143.743 220.208 155.748 238.538 172.878 246.556C173.735 246.963 174.614 247.338 175.493 247.681C195.559 255.602 214.779 245.977 225.873 228.665C229.196 223.467 232.058 218 235.424 212.833C237.203 210.111 239.465 207.549 242.477 206.337C248.458 203.915 256.101 205.748 262.511 203.936C266.949 202.682 273.498 200.41 275.61 195.811C277.936 190.72 274.956 190.57 270.69 190.827C266.423 191.084 261.557 187.097 261.096 179.54C260.635 171.983 264.365 163.204 264.365 163.204Z" fill="#757575" stroke="#263238" stroke-linecap="round" stroke-linejoin="round"/>
<path d="M261.28 164.351C262.127 162.368 258.654 156.151 257.797 154.511C250.347 140.34 229.091 140.008 219.744 152.367C216.357 156.869 214.534 162.668 210.097 166.119C200.599 173.494 187.05 164.501 176.867 163.354C154.711 160.856 139.533 182.176 140.122 202.468C140.669 221.365 152.674 239.695 169.793 247.713C170.661 248.12 171.529 248.495 172.419 248.838C192.485 256.76 211.704 247.123 222.799 229.812C226.111 224.624 228.984 219.157 232.349 213.991C234.118 211.268 236.391 208.706 239.403 207.484C245.373 205.072 253.027 206.905 259.426 205.094C263.874 203.84 270.424 201.567 272.525 196.969C274.862 191.877 271.882 191.727 267.605 191.984C263.328 192.242 258.472 188.254 258.022 180.697C257.572 173.14 261.28 164.361 261.28 164.351Z" fill="#757575"/>
<path opacity="0.19" d="M270.66 190.902C266.372 191.17 261.527 187.172 261.066 179.615C260.606 172.058 264.368 163.258 264.368 163.258C265.215 161.264 261.742 155.057 260.874 153.407C254.839 141.916 239.725 139.525 229.241 145.635L188.895 250.543C203.837 250.929 217.29 242.129 225.843 228.74C229.166 223.542 232.028 218.075 235.394 212.908C237.163 210.186 239.435 207.624 242.447 206.413C248.429 203.99 256.071 205.823 262.481 204.011C266.919 202.757 273.468 200.485 275.58 195.886C277.906 190.741 274.926 190.591 270.66 190.902Z" fill="white"/>
<path opacity="0.19" d="M192.089 152.721C194.016 151.606 196.091 150.769 198.252 150.234C190.985 143.438 179.258 142.731 170.651 147.726L130.293 252.633C140.498 252.891 150.005 248.871 157.734 242.032L192.089 152.721Z" fill="white"/>
<path d="M261.28 164.351C262.127 162.368 258.654 156.151 257.797 154.511C250.347 140.34 229.091 140.008 219.744 152.367C216.357 156.869 214.534 162.668 210.097 166.119C200.599 173.494 187.05 164.501 176.867 163.354C154.711 160.856 139.533 182.176 140.122 202.468C140.669 221.365 152.674 239.695 169.793 247.713C170.661 248.12 171.529 248.495 172.419 248.838C192.485 256.76 211.704 247.123 222.799 229.812C226.111 224.624 228.984 219.157 232.349 213.991C234.118 211.268 236.391 208.706 239.403 207.484C245.373 205.072 253.027 206.905 259.426 205.094C263.874 203.84 270.424 201.567 272.525 196.969C274.862 191.877 271.882 191.727 267.605 191.984C263.328 192.242 258.472 188.254 258.022 180.697C257.572 173.14 261.28 164.361 261.28 164.351Z" stroke="#263238" stroke-linecap="round" stroke-linejoin="round"/>
<path d="M244.391 169.989L249.268 181.662L368.572 120.477L364.402 111.495L244.391 169.989Z" fill="#263238" stroke="#263238" stroke-linecap="round" stroke-linejoin="round"/>
<path d="M259.4 173.034C259.4 173.034 236.536 208.771 228.668 212.341C220.8 215.91 215.462 204.269 220.275 196.509C225.088 188.748 259.4 173.034 259.4 173.034Z" fill="white" stroke="#263238" stroke-linecap="round" stroke-linejoin="round"/>
<path d="M254.502 181.827L246.76 165.877C246.179 164.679 244.736 164.179 243.537 164.761L237.153 167.859C235.955 168.441 235.455 169.884 236.037 171.082L243.778 187.032C244.36 188.23 245.803 188.73 247.001 188.148L253.385 185.05C254.583 184.468 255.083 183.026 254.502 181.827Z" fill="white" stroke="#263238" stroke-linecap="round" stroke-linejoin="round"/>
<path d="M227.34 197.403L220.081 181.228C219.536 180.013 218.109 179.47 216.893 180.015L210.419 182.921C209.204 183.466 208.661 184.893 209.207 186.109L216.466 202.284C217.011 203.499 218.438 204.042 219.654 203.497L226.128 200.591C227.343 200.046 227.886 198.619 227.34 197.403Z" fill="white" stroke="#263238" stroke-linecap="round" stroke-linejoin="round"/>
<path d="M190.468 217.368L179.352 193.914C179.268 193.74 179.221 193.55 179.212 193.357C179.204 193.163 179.235 192.97 179.303 192.789C179.371 192.608 179.475 192.442 179.608 192.302C179.742 192.162 179.903 192.051 180.081 191.974C180.252 191.89 180.439 191.841 180.629 191.83C180.82 191.819 181.011 191.845 181.191 191.908C181.372 191.971 181.538 192.068 181.68 192.196C181.823 192.323 181.938 192.477 182.021 192.649L193.137 216.103C193.299 216.45 193.318 216.847 193.189 217.208C193.061 217.569 192.796 217.865 192.451 218.032C192.278 218.123 192.088 218.178 191.893 218.194C191.698 218.21 191.502 218.186 191.317 218.124C191.132 218.062 190.961 217.963 190.815 217.833C190.669 217.703 190.551 217.545 190.468 217.368Z" fill="white" stroke="#263238" stroke-linecap="round" stroke-linejoin="round"/>
<path d="M179.63 194.847L144.932 223.252C144.407 223.679 144.045 224.272 143.904 224.933C143.764 225.594 143.854 226.283 144.16 226.886L146.454 231.452C146.79 232.122 147.366 232.64 148.068 232.903C148.77 233.165 149.545 233.152 150.238 232.867L190.231 216.424L188.73 213.766L162.747 218.439L181.237 198.598L179.63 194.847Z" fill="white" stroke="#263238" stroke-linecap="round" stroke-linejoin="round"/>
<path d="M219.238 205.587C218.849 205.255 218.345 205.091 217.835 205.129C217.325 205.167 216.851 205.405 216.516 205.79C212.464 209.745 207.65 212.834 202.366 214.87C198.942 216.266 195.433 217.447 191.862 218.407C190.961 218.632 190.061 218.857 189.16 219.018C187.017 219.404 183.522 220.251 183.801 223.048C183.858 223.749 184.169 224.406 184.675 224.895C185.181 225.384 185.848 225.671 186.55 225.704C187.253 225.737 187.944 225.513 188.493 225.073C189.043 224.634 189.413 224.009 189.536 223.316C194.491 222.318 199.332 220.82 203.985 218.846C209.901 216.594 215.207 212.985 219.474 208.309C219.638 208.115 219.762 207.891 219.838 207.649C219.915 207.407 219.943 207.152 219.921 206.899C219.899 206.646 219.828 206.4 219.711 206.175C219.593 205.95 219.433 205.75 219.238 205.587Z" fill="white" stroke="#263238" stroke-linecap="round" stroke-linejoin="round"/>
<path d="M178.287 232.707C178.236 232.134 178.016 231.59 177.656 231.143C177.296 230.695 176.811 230.365 176.263 230.193C175.714 230.021 175.128 230.015 174.576 230.177C174.025 230.338 173.534 230.66 173.165 231.1C172.797 231.541 172.567 232.081 172.505 232.652C172.443 233.223 172.552 233.8 172.818 234.309C173.084 234.818 173.495 235.237 173.999 235.513C174.503 235.789 175.077 235.909 175.65 235.858C176.03 235.824 176.4 235.716 176.738 235.539C177.076 235.363 177.376 235.121 177.621 234.829C177.866 234.536 178.051 234.198 178.165 233.834C178.279 233.47 178.32 233.087 178.287 232.707Z" fill="white" stroke="#263238" stroke-linecap="round" stroke-linejoin="round"/>
<path d="M200.005 235.761C199.954 235.188 199.734 234.644 199.373 234.196C199.012 233.749 198.527 233.419 197.978 233.247C197.429 233.076 196.842 233.071 196.291 233.234C195.739 233.396 195.248 233.719 194.88 234.16C194.512 234.602 194.284 235.143 194.223 235.714C194.163 236.286 194.273 236.863 194.541 237.372C194.808 237.881 195.221 238.299 195.726 238.573C196.231 238.847 196.807 238.965 197.379 238.912C198.145 238.842 198.851 238.47 199.344 237.88C199.836 237.289 200.074 236.527 200.005 235.761Z" fill="white" stroke="#263238" stroke-linecap="round" stroke-linejoin="round"/>
<path d="M287.218 149.118L285.953 149.729L290.616 160.287L291.87 159.644L287.218 149.118Z" fill="white" stroke="#263238" stroke-linecap="round" stroke-linejoin="round"/>
<path d="M295.742 144.959L294.488 145.57L299.065 155.936L300.319 155.293L295.742 144.959Z" fill="white" stroke="#263238" stroke-linecap="round" stroke-linejoin="round"/>
<path d="M276.155 154.511L274.891 155.122L279.682 165.927L280.925 165.284L276.155 154.511Z" fill="white" stroke="#263238" stroke-linecap="round" stroke-linejoin="round"/>
<path d="M304.274 140.802L303.02 141.413L307.511 151.596L308.754 150.952L304.274 140.802Z" fill="white" stroke="#263238" stroke-linecap="round" stroke-linejoin="round"/>
<path d="M265.73 159.592L264.465 160.203L269.363 171.244L270.618 170.601L265.73 159.592Z" fill="white" stroke="#263238" stroke-linecap="round" stroke-linejoin="round"/>
<path d="M257.797 177.193L259.051 176.55L254.034 165.295L252.77 165.906L257.797 177.193Z" fill="white" stroke="#263238" stroke-linecap="round" stroke-linejoin="round"/>
<path d="M312.8 136.642L311.535 137.253L315.941 147.243L317.195 146.6L312.8 136.642Z" fill="white" stroke="#263238" stroke-linecap="round" stroke-linejoin="round"/>
<path d="M355.468 115.848L354.203 116.459L358.566 125.623L359.809 124.98L355.468 115.848Z" fill="white" stroke="#263238" stroke-linecap="round" stroke-linejoin="round"/>
<path d="M338.402 124.165L337.137 124.776L341.682 134.326L342.925 133.683L338.402 124.165Z" fill="white" stroke="#263238" stroke-linecap="round" stroke-linejoin="round"/>
<path d="M346.929 120.007L345.664 120.618L350.112 129.975L351.367 129.332L346.929 120.007Z" fill="white" stroke="#263238" stroke-linecap="round" stroke-linejoin="round"/>
<path d="M321.335 132.483L320.07 133.094L324.797 143.02L326.041 142.377L321.335 132.483Z" fill="white" stroke="#263238" stroke-linecap="round" stroke-linejoin="round"/>
<path d="M329.886 128.324L328.621 128.946L333.241 138.668L334.495 138.025L329.886 128.324Z" fill="white" stroke="#263238" stroke-linecap="round" stroke-linejoin="round"/>
<path d="M365.251 111.881L183.852 202.072" stroke="white" stroke-width="0.5" stroke-linecap="round" stroke-linejoin="round"/>
<path d="M366.271 113.404L184.871 203.594" stroke="white" stroke-width="0.5" stroke-linecap="round" stroke-linejoin="round"/>
<path d="M367.28 114.937L185.891 205.127" stroke="white" stroke-width="0.5" stroke-linecap="round" stroke-linejoin="round"/>
<path d="M368.299 116.458L186.91 206.648" stroke="white" stroke-width="0.5" stroke-linecap="round" stroke-linejoin="round"/>
<path d="M369.315 117.98L187.926 208.171" stroke="white" stroke-width="0.5" stroke-linecap="round" stroke-linejoin="round"/>
<path d="M370.331 119.513L188.941 209.704" stroke="white" stroke-width="0.5" stroke-linecap="round" stroke-linejoin="round"/>
<path d="M364.449 111.495L367.408 100.433C367.408 100.433 376.765 102.502 388.021 92.2542C393.345 97.7726 396.776 104.841 397.818 112.438C397.818 112.438 381.879 116.04 378.738 124.143L368.619 120.478L364.449 111.495Z" fill="#263238" stroke="#263238" stroke-linecap="round" stroke-linejoin="round"/>
<path d="M374.92 106.757C374.884 106.432 374.752 106.125 374.541 105.875C374.33 105.625 374.05 105.444 373.736 105.353C373.422 105.263 373.088 105.268 372.776 105.368C372.465 105.467 372.19 105.657 371.987 105.913C371.784 106.169 371.661 106.48 371.634 106.806C371.608 107.132 371.679 107.458 371.838 107.744C371.997 108.029 372.237 108.261 372.529 108.41C372.82 108.559 373.148 108.617 373.473 108.579C373.906 108.528 374.301 108.308 374.572 107.966C374.843 107.625 374.969 107.19 374.92 106.757Z" fill="white" stroke="#263238" stroke-linecap="round" stroke-linejoin="round"/>
<path d="M380.256 104.164C380.22 103.839 380.089 103.533 379.879 103.283C379.669 103.033 379.389 102.851 379.075 102.76C378.762 102.669 378.428 102.673 378.117 102.772C377.806 102.871 377.531 103.059 377.327 103.314C377.123 103.569 376.999 103.879 376.971 104.204C376.943 104.53 377.012 104.856 377.17 105.142C377.327 105.428 377.566 105.661 377.856 105.811C378.146 105.961 378.474 106.022 378.799 105.986C379.233 105.938 379.631 105.718 379.905 105.377C380.178 105.035 380.304 104.599 380.256 104.164Z" fill="white" stroke="#263238" stroke-linecap="round" stroke-linejoin="round"/>
<path d="M385.6 101.558C385.564 101.234 385.433 100.927 385.223 100.677C385.012 100.427 384.733 100.245 384.419 100.154C384.105 100.063 383.772 100.068 383.461 100.166C383.149 100.265 382.874 100.454 382.67 100.709C382.466 100.964 382.343 101.273 382.315 101.599C382.287 101.924 382.356 102.25 382.513 102.536C382.671 102.822 382.91 103.055 383.2 103.205C383.49 103.356 383.818 103.417 384.142 103.38C384.577 103.332 384.975 103.113 385.248 102.771C385.522 102.429 385.648 101.993 385.6 101.558Z" fill="white" stroke="#263238" stroke-linecap="round" stroke-linejoin="round"/>
<path d="M379.155 115.654C379.118 115.329 378.986 115.022 378.776 114.772C378.565 114.522 378.285 114.341 377.97 114.25C377.656 114.16 377.322 114.165 377.011 114.265C376.699 114.364 376.425 114.554 376.221 114.81C376.018 115.066 375.895 115.377 375.869 115.703C375.842 116.029 375.913 116.355 376.072 116.641C376.231 116.926 376.472 117.158 376.763 117.307C377.054 117.456 377.383 117.514 377.708 117.476C378.14 117.425 378.536 117.205 378.807 116.863C379.078 116.522 379.203 116.087 379.155 115.654Z" fill="white" stroke="#263238" stroke-linecap="round" stroke-linejoin="round"/>
<path d="M384.495 113.061C384.459 112.736 384.327 112.429 384.117 112.18C383.907 111.93 383.627 111.748 383.314 111.657C383 111.566 382.666 111.57 382.355 111.669C382.044 111.767 381.769 111.956 381.565 112.211C381.361 112.466 381.237 112.776 381.209 113.101C381.181 113.427 381.25 113.753 381.408 114.039C381.566 114.325 381.804 114.558 382.094 114.708C382.384 114.858 382.712 114.919 383.037 114.883C383.472 114.834 383.87 114.615 384.143 114.274C384.416 113.932 384.543 113.496 384.495 113.061Z" fill="white" stroke="#263238" stroke-linecap="round" stroke-linejoin="round"/>
<path d="M389.838 110.509C389.802 110.185 389.671 109.878 389.461 109.628C389.251 109.378 388.971 109.197 388.657 109.106C388.344 109.015 388.01 109.019 387.699 109.117C387.388 109.216 387.113 109.405 386.909 109.66C386.705 109.915 386.581 110.225 386.553 110.55C386.525 110.875 386.594 111.202 386.752 111.488C386.909 111.774 387.148 112.006 387.438 112.157C387.728 112.307 388.056 112.368 388.381 112.332C388.815 112.283 389.213 112.064 389.487 111.722C389.76 111.381 389.886 110.944 389.838 110.509Z" fill="white" stroke="#263238" stroke-linecap="round" stroke-linejoin="round"/>
<path d="M340.094 135.163C340.094 135.163 333.759 125.515 333.856 124.443C334.295 119.984 341.434 130.36 343.074 132.011C344.714 133.662 344.392 135.634 342.742 137.606C341.091 139.579 330.254 140.233 330.254 140.233L340.094 135.163Z" fill="white" stroke="#263238" stroke-linecap="round" stroke-linejoin="round"/>
<path d="M344.158 132.398C344.158 132.398 338.67 123.898 340.364 122.257C342.775 119.931 343.204 123.587 344.908 126.717C346.613 129.847 348.317 132.494 347.277 133.437C345.369 135.163 344.158 132.398 344.158 132.398Z" fill="white" stroke="#263238" stroke-linecap="round" stroke-linejoin="round"/>
<path d="M347.566 130.221C347.566 130.221 342.603 120.788 343.772 120.08C344.94 119.373 346.612 121.409 348.317 124.529C350.021 127.648 351.736 130.306 350.686 131.26C348.778 133.018 347.566 130.221 347.566 130.221Z" fill="white" stroke="#263238" stroke-linecap="round" stroke-linejoin="round"/>
<path d="M351.92 131.54C351.92 131.54 347.461 122.14 348.136 121.411C349.765 119.631 350.977 122.729 352.681 125.859C354.385 128.989 356.09 131.637 355.05 132.58C353.131 134.327 351.92 131.54 351.92 131.54Z" fill="white" stroke="#263238" stroke-linecap="round" stroke-linejoin="round"/>
<path d="M175.428 78.8765C175.428 78.8765 165.963 84.579 156.745 91.4928C147.527 98.4066 115.262 177.417 116.913 180.386C118.563 183.355 202.505 194.214 208.1 195.2C213.696 196.186 216.676 197.505 220.277 196.508C223.879 195.511 228.188 190.259 228.188 190.259C228.188 190.259 232.476 189.605 233.119 187.3C233.762 184.995 231.8 184.995 229.496 183.999C227.191 183.002 225.551 179.711 223.9 178.082C222.25 176.452 214.36 178.403 211.391 179.722C208.422 181.04 203.491 183.345 200.854 183.677C198.217 184.009 183.082 182.026 169.908 174.78C156.734 167.534 152.757 165.24 150.817 163.589C148.877 161.939 180.445 112.234 180.445 112.234" fill="#41C0F6"/>
<path d="M175.428 78.8765C175.428 78.8765 165.963 84.579 156.745 91.4928C147.527 98.4066 115.262 177.417 116.913 180.386C118.563 183.355 202.505 194.214 208.1 195.2C213.696 196.186 216.676 197.505 220.277 196.508C223.879 195.511 228.188 190.259 228.188 190.259C228.188 190.259 232.476 189.605 233.119 187.3C233.762 184.995 231.8 184.995 229.496 183.999C227.191 183.002 225.551 179.711 223.9 178.082C222.25 176.452 214.36 178.403 211.391 179.722C208.422 181.04 203.491 183.345 200.854 183.677C198.217 184.009 183.082 182.026 169.908 174.78C156.734 167.534 152.757 165.24 150.817 163.589C148.877 161.939 180.445 112.234 180.445 112.234" stroke="#263238" stroke-linecap="round" stroke-linejoin="round"/>
<path d="M233.119 187.301C233.784 184.996 231.801 184.996 229.496 183.999C227.192 183.003 225.551 179.712 223.901 178.083C222.25 176.453 214.361 178.404 211.392 179.723C208.422 181.041 203.492 183.346 200.855 183.678C198.218 184.01 183.082 182.027 169.908 174.781C156.735 167.535 152.758 165.241 150.818 163.59C150.175 163.054 153.112 157.405 157.346 150.041C148.143 148.723 139.218 145.909 130.923 141.713C122.734 161.125 116.141 179.004 116.913 180.387C118.553 183.346 202.505 194.215 208.101 195.201C213.696 196.187 216.676 197.506 220.278 196.509C223.879 195.512 228.188 190.259 228.188 190.259C228.188 190.259 232.465 189.606 233.119 187.301Z" fill="white" stroke="#263238" stroke-linecap="round" stroke-linejoin="round"/>
<path d="M150.817 163.59C150.817 163.59 139.916 160.321 132.477 168.746" stroke="#263238" stroke-linecap="round" stroke-linejoin="round"/>
<path d="M129.316 145.549C138.17 149.494 150.658 151.295 156.254 151.981C158.065 148.765 160.177 145.185 162.396 141.487C152.677 140.433 143.169 137.941 134.183 134.091C132.521 137.949 130.881 141.798 129.316 145.549Z" fill="#263238" stroke="#263238" stroke-linecap="round" stroke-linejoin="round"/>
</svg>
