<svg width="16" height="16" viewBox="0 0 16 16" fill="none" xmlns="http://www.w3.org/2000/svg">
<path d="M10.9899 15.17C13.6899 15.17 15.8899 12.97 15.8899 10.27V4.9C15.8899 2.2 13.6899 0 10.9899 0H4.89997C2.19999 0 0 2.2 0 4.9V10.27C0 12.97 2.19999 15.17 4.89997 15.17H10.9899ZM1.07999 10.27V4.9C1.07999 2.8 2.78998 1.09 4.88997 1.09H10.9799C13.0799 1.09 14.7899 2.8 14.7899 4.9V10.27C14.7899 12.37 13.0799 14.08 10.9799 14.08H4.88997C2.79998 14.08 1.07999 12.37 1.07999 10.27Z" fill="white"/>
<path d="M12.2381 4.25994C12.7381 4.25994 13.1481 3.84994 13.1481 3.34994C13.1481 2.84994 12.7381 2.43994 12.2381 2.43994C11.7381 2.43994 11.3281 2.84994 11.3281 3.34994C11.3381 3.84994 11.7381 4.25994 12.2381 4.25994Z" fill="white"/>
<path d="M12.3103 7.57996C12.3103 5.16996 10.3503 3.20996 7.94032 3.20996C5.53032 3.20996 3.57031 5.16996 3.57031 7.57996C3.57031 9.98996 5.53032 11.95 7.94032 11.95C10.3503 11.95 12.3103 9.98996 12.3103 7.57996ZM4.67031 7.57996C4.67031 5.76996 6.14031 4.29996 7.95031 4.29996C9.76031 4.29996 11.2303 5.76996 11.2303 7.57996C11.2303 9.38996 9.76031 10.86 7.95031 10.86C6.14031 10.86 4.67031 9.38996 4.67031 7.57996Z" fill="white"/>
</svg>
