<svg width="15" height="15" viewBox="0 0 15 15" fill="none" xmlns="http://www.w3.org/2000/svg">
<path d="M0.1875 4.6001H3.3575V14.1501H0.1875V4.6001Z" fill="white"/>
<path d="M1.8 0C0.710003 0 0 0.71 0 1.65C0 2.57 0.69 3.3 1.75 3.3H1.77C2.88 3.3 3.57001 2.57 3.57001 1.65C3.55001 0.71 2.89 0 1.8 0Z" fill="white"/>
<path d="M11.1589 4.37988C9.47891 4.37988 8.7189 5.30988 8.2989 5.95988V4.59988H5.12891V14.1499H8.2989V8.81988C8.2989 8.52988 8.3189 8.24988 8.3989 8.04988C8.6289 7.47988 9.1489 6.88988 10.0289 6.88988C11.1789 6.88988 11.6389 7.76988 11.6389 9.04988V14.1599H14.8089V8.67988C14.8089 5.73988 13.2489 4.37988 11.1589 4.37988Z" fill="white"/>
</svg>
