<svg width="17" height="14" viewBox="0 0 17 14" fill="none" xmlns="http://www.w3.org/2000/svg">
<path d="M5.15003 13.3C11.3201 13.3 14.7001 8.19 14.7001 3.75C14.7001 3.6 14.7001 3.46 14.6901 3.32C15.3501 2.85 15.9101 2.25 16.3601 1.58C15.7601 1.85 15.1101 2.03 14.4301 2.11C15.1201 1.69 15.6501 1.04 15.9101 0.25C15.2601 0.63 14.5401 0.91 13.7801 1.06C13.1701 0.41 12.3001 0 11.3301 0C9.48006 0 7.97005 1.5 7.97005 3.36C7.97005 3.62 8.00005 3.88 8.06005 4.13C5.27003 3.99 2.80002 2.65 1.14001 0.62C0.850005 1.12 0.689999 1.69 0.689999 2.31C0.689999 3.47 1.28001 4.5 2.18001 5.1C1.63001 5.08 1.11 4.93 0.66 4.68C0.66 4.69 0.66 4.71 0.66 4.72C0.66 6.35 1.82001 7.7 3.35002 8.01C3.07002 8.09 2.77002 8.13 2.46002 8.13C2.24001 8.13 2.03001 8.11 1.83001 8.07C2.26001 9.4 3.50002 10.37 4.97003 10.4C3.82003 11.3 2.37001 11.84 0.800001 11.84C0.529999 11.84 0.260002 11.82 0 11.79C1.49001 12.75 3.25002 13.3 5.15003 13.3Z" fill="white"/>
</svg>
