<svg width="17" height="12" viewBox="0 0 17 12" fill="none" xmlns="http://www.w3.org/2000/svg">
<path d="M0.09 8.29889C0.19 9.77889 1.41 11.0889 2.88 11.2789C3.88 11.4089 4.89 11.4689 5.89 11.5089C7.51 11.5789 9.14 11.5789 10.77 11.5089C11.78 11.4589 12.78 11.4089 13.78 11.2789C15.23 11.0889 16.45 9.78889 16.56 8.34889C16.68 6.75889 16.66 5.16889 16.59 3.56889C16.54 2.46889 16.13 1.56889 15.25 0.888893C14.63 0.408893 13.91 0.258893 13.16 0.188893C11.45 0.0488925 9.73 -0.0411073 8.02 0.0188927C7.45 0.0188927 6.88 0.00889269 6.3 0.0188927C5.73 0.0288927 5.16 0.0688926 4.59 0.108893C4.02 0.148893 3.45 0.188893 2.88 0.268893C1.41 0.458893 0.2 1.76889 0.09 3.25889C-0.03 4.93889 -0.03 6.61889 0.09 8.29889ZM6.78 3.46889C6.78 3.33889 6.79 3.28889 6.93 3.37889C8.21 4.15889 9.49 4.93889 10.77 5.71889C10.8 5.73889 10.83 5.73889 10.84 5.79889C10.37 6.08889 9.9 6.37889 9.43 6.66889C8.6 7.16889 7.78 7.67889 6.95 8.17889C6.91 8.20889 6.87 8.25889 6.82 8.23889C6.76 8.20889 6.79 8.14889 6.79 8.09889C6.78 6.54889 6.78 5.00889 6.78 3.46889Z" fill="white"/>
</svg>
