<svg width="280" height="46" viewBox="0 0 280 46" fill="none" xmlns="http://www.w3.org/2000/svg">
<path d="M150.959 9.98998C151.488 9.98998 151.921 10.1694 152.258 10.5282C152.595 10.863 152.763 11.3055 152.763 11.8557V33.8853C152.763 34.4355 152.607 34.866 152.294 35.177C152.005 35.4879 151.596 35.6434 151.067 35.6434C150.562 35.6434 150.165 35.4879 149.876 35.177C149.588 34.866 149.443 34.4355 149.443 33.8853V17.2016L142.371 30.5845C141.914 31.4216 141.324 31.8402 140.603 31.8402C139.881 31.8402 139.292 31.4216 138.835 30.5845L131.726 17.3452V33.8853C131.726 34.4355 131.582 34.866 131.293 35.177C131.004 35.4879 130.595 35.6434 130.066 35.6434C129.561 35.6434 129.152 35.4879 128.839 35.177C128.551 34.8421 128.406 34.4116 128.406 33.8853V11.8557C128.406 11.3055 128.575 10.863 128.911 10.5282C129.248 10.1694 129.681 9.98998 130.21 9.98998C130.956 9.98998 131.558 10.4205 132.015 11.2816L140.639 27.6783L149.191 11.2816C149.648 10.4205 150.237 9.98998 150.959 9.98998ZM171.917 17.5963C172.47 17.5963 172.903 17.7518 173.216 18.0627C173.553 18.3737 173.721 18.8042 173.721 19.3544V33.9571C173.721 34.4594 173.553 34.866 173.216 35.177C172.879 35.4879 172.434 35.6434 171.881 35.6434C171.376 35.6434 170.967 35.4999 170.654 35.2128C170.341 34.9019 170.185 34.4953 170.185 33.993V32.6296C169.632 33.6342 168.862 34.3996 167.876 34.9258C166.913 35.4521 165.831 35.7152 164.628 35.7152C160.346 35.7152 158.205 33.3711 158.205 28.6829V19.3544C158.205 18.8042 158.361 18.3737 158.674 18.0627C159.011 17.7518 159.468 17.5963 160.045 17.5963C160.599 17.5963 161.032 17.7518 161.344 18.0627C161.681 18.3737 161.85 18.8042 161.85 19.3544V28.647C161.85 30.0582 162.138 31.0987 162.716 31.7685C163.293 32.4382 164.183 32.7731 165.386 32.7731C166.805 32.7731 167.936 32.3186 168.778 31.4097C169.644 30.5008 170.077 29.2928 170.077 27.7859V19.3544C170.077 18.8281 170.245 18.4096 170.582 18.0986C170.919 17.7638 171.364 17.5963 171.917 17.5963ZM184.955 35.7152C182.502 35.7152 180.493 35.2128 178.929 34.2082C178.496 33.9451 178.184 33.6701 177.991 33.383C177.823 33.096 177.739 32.7731 177.739 32.4143C177.739 32.0316 177.847 31.7087 178.063 31.4456C178.28 31.1825 178.557 31.0509 178.893 31.0509C179.206 31.0509 179.699 31.2422 180.373 31.625C181.095 32.0077 181.792 32.3186 182.466 32.5578C183.163 32.797 184.029 32.9166 185.064 32.9166C186.218 32.9166 187.121 32.7133 187.77 32.3067C188.42 31.9 188.744 31.326 188.744 30.5845C188.744 30.1061 188.612 29.7234 188.347 29.4363C188.107 29.1493 187.674 28.8982 187.048 28.6829C186.423 28.4437 185.497 28.1925 184.27 27.9294C182.153 27.4749 180.625 26.865 179.687 26.0996C178.773 25.3103 178.316 24.2458 178.316 22.9064C178.316 21.8778 178.617 20.957 179.218 20.1437C179.82 19.3066 180.649 18.6607 181.708 18.2062C182.766 17.7518 183.969 17.5246 185.316 17.5246C186.279 17.5246 187.217 17.6561 188.131 17.9192C189.045 18.1584 189.851 18.5172 190.549 18.9956C191.342 19.5218 191.739 20.1318 191.739 20.8254C191.739 21.2081 191.619 21.531 191.378 21.7941C191.162 22.0572 190.898 22.1888 190.585 22.1888C190.368 22.1888 190.152 22.141 189.935 22.0453C189.719 21.9496 189.43 21.7941 189.069 21.5789C188.42 21.1961 187.806 20.8972 187.229 20.6819C186.676 20.4666 185.978 20.359 185.136 20.359C184.126 20.359 183.308 20.5743 182.682 21.0048C182.081 21.4354 181.78 22.0214 181.78 22.7629C181.78 23.4326 182.057 23.9588 182.61 24.3415C183.187 24.7003 184.258 25.0472 185.822 25.382C187.433 25.7169 188.696 26.0996 189.61 26.5302C190.524 26.9607 191.174 27.4989 191.559 28.1447C191.968 28.7666 192.172 29.5679 192.172 30.5486C192.172 32.1033 191.511 33.3591 190.188 34.3159C188.889 35.2487 187.145 35.7152 184.955 35.7152ZM198.069 35.6434C197.54 35.6434 197.095 35.4999 196.734 35.2128C196.397 34.9258 196.229 34.4953 196.229 33.9212V19.3544C196.229 18.7803 196.397 18.3498 196.734 18.0627C197.095 17.7518 197.54 17.5963 198.069 17.5963C198.599 17.5963 199.032 17.7518 199.368 18.0627C199.705 18.3498 199.873 18.7803 199.873 19.3544V33.9212C199.873 34.4953 199.705 34.9258 199.368 35.2128C199.032 35.4999 198.599 35.6434 198.069 35.6434ZM198.069 14.0802C197.372 14.0802 196.818 13.8888 196.409 13.5061C196.001 13.1234 195.796 12.6211 195.796 11.9992C195.796 11.3773 196.001 10.887 196.409 10.5282C196.818 10.1455 197.372 9.9541 198.069 9.9541C198.743 9.9541 199.284 10.1455 199.693 10.5282C200.126 10.887 200.342 11.3773 200.342 11.9992C200.342 12.6211 200.138 13.1234 199.729 13.5061C199.32 13.8888 198.767 14.0802 198.069 14.0802ZM212.51 35.7152C210.802 35.7152 209.298 35.3444 207.999 34.6029C206.724 33.8614 205.726 32.809 205.004 31.4456C204.307 30.0822 203.958 28.5035 203.958 26.7095C203.958 24.8917 204.318 23.2891 205.04 21.9018C205.786 20.5144 206.82 19.4381 208.143 18.6727C209.467 17.9073 210.982 17.5246 212.69 17.5246C213.604 17.5246 214.518 17.6561 215.432 17.9192C216.371 18.1823 217.2 18.5411 217.922 18.9956C218.692 19.5218 219.077 20.1318 219.077 20.8254C219.077 21.232 218.969 21.5789 218.752 21.8659C218.536 22.129 218.259 22.2606 217.922 22.2606C217.706 22.2606 217.489 22.2127 217.273 22.117C217.056 21.9975 216.779 21.83 216.443 21.6147C215.841 21.232 215.276 20.945 214.747 20.7537C214.242 20.5384 213.628 20.4307 212.906 20.4307C211.271 20.4307 209.996 20.9809 209.082 22.0812C208.191 23.1815 207.746 24.7123 207.746 26.6737C207.746 28.6351 208.191 30.1539 209.082 31.2303C209.972 32.2827 211.235 32.809 212.87 32.809C213.592 32.809 214.23 32.7013 214.783 32.4861C215.336 32.2708 215.901 31.9837 216.479 31.625C216.743 31.4575 217.008 31.314 217.273 31.1944C217.537 31.0748 217.778 31.015 217.994 31.015C218.331 31.015 218.608 31.1585 218.824 31.4456C219.041 31.7087 219.149 32.0436 219.149 32.4502C219.149 32.785 219.053 33.096 218.86 33.383C218.692 33.6461 218.391 33.9212 217.958 34.2082C217.237 34.6866 216.395 35.0574 215.432 35.3205C214.47 35.5836 213.496 35.7152 212.51 35.7152ZM232.91 32.8807C233.439 32.9285 233.812 33.0721 234.029 33.3113C234.269 33.5265 234.389 33.8375 234.389 34.2441C234.389 34.7225 234.197 35.0933 233.812 35.3564C233.451 35.5956 232.91 35.6912 232.188 35.6434L231.214 35.5716C229.265 35.4281 227.81 34.8421 226.848 33.8136C225.885 32.7611 225.405 31.2183 225.405 29.1852V20.7537H223.239C222.181 20.7537 221.651 20.2872 221.651 19.3544C221.651 18.9238 221.784 18.589 222.049 18.3498C222.337 18.0867 222.734 17.9551 223.239 17.9551H225.405V14.2596C225.405 13.7094 225.561 13.2789 225.874 12.9679C226.21 12.657 226.655 12.5015 227.209 12.5015C227.762 12.5015 228.207 12.657 228.544 12.9679C228.88 13.2789 229.049 13.7094 229.049 14.2596V17.9551H232.621C233.126 17.9551 233.511 18.0867 233.776 18.3498C234.065 18.589 234.209 18.9238 234.209 19.3544C234.209 19.8089 234.065 20.1557 233.776 20.3949C233.511 20.6341 233.126 20.7537 232.621 20.7537H229.049V29.4363C229.049 30.5605 229.277 31.3857 229.735 31.912C230.216 32.4382 230.937 32.7372 231.9 32.809L232.91 32.8807ZM240.651 35.6434C240.122 35.6434 239.677 35.4999 239.316 35.2128C238.979 34.9258 238.811 34.4953 238.811 33.9212V19.3544C238.811 18.7803 238.979 18.3498 239.316 18.0627C239.677 17.7518 240.122 17.5963 240.651 17.5963C241.181 17.5963 241.614 17.7518 241.95 18.0627C242.287 18.3498 242.455 18.7803 242.455 19.3544V33.9212C242.455 34.4953 242.287 34.9258 241.95 35.2128C241.614 35.4999 241.181 35.6434 240.651 35.6434ZM240.651 14.0802C239.954 14.0802 239.4 13.8888 238.991 13.5061C238.582 13.1234 238.378 12.6211 238.378 11.9992C238.378 11.3773 238.582 10.887 238.991 10.5282C239.4 10.1455 239.954 9.9541 240.651 9.9541C241.325 9.9541 241.866 10.1455 242.275 10.5282C242.708 10.887 242.924 11.3773 242.924 11.9992C242.924 12.6211 242.72 13.1234 242.311 13.5061C241.902 13.8888 241.349 14.0802 240.651 14.0802ZM261.334 31.0509C261.671 31.0509 261.947 31.1825 262.164 31.4456C262.38 31.7087 262.489 32.0436 262.489 32.4502C262.489 33.1438 262.056 33.7299 261.19 34.2082C260.348 34.6866 259.422 35.0574 258.411 35.3205C257.425 35.5836 256.475 35.7152 255.561 35.7152C252.77 35.7152 250.569 34.9139 248.957 33.3113C247.345 31.6848 246.54 29.4722 246.54 26.6737C246.54 24.8797 246.889 23.2891 247.586 21.9018C248.308 20.5144 249.306 19.4381 250.581 18.6727C251.88 17.9073 253.348 17.5246 254.983 17.5246C257.341 17.5246 259.205 18.278 260.576 19.7849C261.947 21.2918 262.633 23.325 262.633 25.8843C262.633 26.8411 262.2 27.3195 261.334 27.3195H250.184C250.425 31.027 252.217 32.8807 255.561 32.8807C256.451 32.8807 257.22 32.7611 257.87 32.5219C258.519 32.2827 259.205 31.9718 259.927 31.5891C259.999 31.5413 260.191 31.4456 260.504 31.302C260.841 31.1346 261.118 31.0509 261.334 31.0509ZM255.055 20.1796C253.66 20.1796 252.541 20.6221 251.7 21.5071C250.858 22.3921 250.353 23.6359 250.184 25.2385H259.494C259.422 23.612 259 22.3682 258.231 21.5071C257.485 20.6221 256.427 20.1796 255.055 20.1796ZM272.783 35.7152C270.33 35.7152 268.321 35.2128 266.757 34.2082C266.324 33.9451 266.011 33.6701 265.819 33.383C265.651 33.096 265.567 32.7731 265.567 32.4143C265.567 32.0316 265.675 31.7087 265.891 31.4456C266.108 31.1825 266.385 31.0509 266.721 31.0509C267.034 31.0509 267.527 31.2422 268.201 31.625C268.922 32.0077 269.62 32.3186 270.294 32.5578C270.991 32.797 271.857 32.9166 272.892 32.9166C274.046 32.9166 274.948 32.7133 275.598 32.3067C276.247 31.9 276.572 31.326 276.572 30.5845C276.572 30.1061 276.44 29.7234 276.175 29.4363C275.934 29.1493 275.501 28.8982 274.876 28.6829C274.251 28.4437 273.325 28.1925 272.098 27.9294C269.981 27.4749 268.453 26.865 267.515 26.0996C266.601 25.3103 266.144 24.2458 266.144 22.9064C266.144 21.8778 266.444 20.957 267.046 20.1437C267.648 19.3066 268.478 18.6607 269.536 18.2062C270.594 17.7518 271.797 17.5246 273.144 17.5246C274.107 17.5246 275.045 17.6561 275.959 17.9192C276.873 18.1584 277.679 18.5172 278.376 18.9956C279.17 19.5218 279.567 20.1318 279.567 20.8254C279.567 21.2081 279.447 21.531 279.206 21.7941C278.99 22.0572 278.725 22.1888 278.412 22.1888C278.196 22.1888 277.979 22.141 277.763 22.0453C277.546 21.9496 277.258 21.7941 276.897 21.5789C276.247 21.1961 275.634 20.8972 275.057 20.6819C274.504 20.4666 273.806 20.359 272.964 20.359C271.953 20.359 271.135 20.5743 270.51 21.0048C269.908 21.4354 269.608 22.0214 269.608 22.7629C269.608 23.4326 269.885 23.9588 270.438 24.3415C271.015 24.7003 272.086 25.0472 273.649 25.382C275.261 25.7169 276.524 26.0996 277.438 26.5302C278.352 26.9607 279.002 27.4989 279.387 28.1447C279.795 28.7666 280 29.5679 280 30.5486C280 32.1033 279.339 33.3591 278.016 34.3159C276.716 35.2487 274.973 35.7152 272.783 35.7152Z" fill="#393A3E"/>
<path d="M5 13.3481L56.7948 40.6685L108.59 13.3481" stroke="#384993" stroke-width="10" stroke-linecap="round" stroke-linejoin="round"/>
<path d="M108.59 32.3203L56.795 5L5.00025 32.3203" stroke="#F0216C" stroke-width="10" stroke-linecap="round" stroke-linejoin="round"/>
</svg>
